<?xml version="1.0" encoding="UTF-8" standalone="no"?>
<!-- Created with Inkscape (http://www.inkscape.org/) -->
<svg
   xmlns:dc="http://purl.org/dc/elements/1.1/"
   xmlns:cc="http://creativecommons.org/ns#"
   xmlns:rdf="http://www.w3.org/1999/02/22-rdf-syntax-ns#"
   xmlns:svg="http://www.w3.org/2000/svg"
   xmlns="http://www.w3.org/2000/svg"
   xmlns:sodipodi="http://sodipodi.sourceforge.net/DTD/sodipodi-0.dtd"
   xmlns:inkscape="http://www.inkscape.org/namespaces/inkscape"
   version="1.0"
   width="744.09448"
   height="1052.3622"
   id="svg2"
   sodipodi:version="0.32"
   inkscape:version="0.46"
   sodipodi:docname="CCD-sensenoderegion.svg"
   inkscape:output_extension="org.inkscape.output.svg.inkscape"
   inkscape:export-filename="/home/latitude/matlab/aorta/reference/images/CCD-sensenoderegion.png"
   inkscape:export-xdpi="300"
   inkscape:export-ydpi="300">
  <sodipodi:namedview
     inkscape:window-height="778"
     inkscape:window-width="1280"
     inkscape:pageshadow="2"
     inkscape:pageopacity="0.0"
     guidetolerance="10.0"
     gridtolerance="10.0"
     objecttolerance="10.0"
     borderopacity="1.0"
     bordercolor="#666666"
     pagecolor="#ffffff"
     id="base"
     showgrid="false"
     inkscape:zoom="1.7712533"
     inkscape:cx="293.20002"
     inkscape:cy="688.6289"
     inkscape:window-x="-6"
     inkscape:window-y="-6"
     inkscape:current-layer="svg2"
     showguides="true"
     inkscape:guide-bbox="true" />
  <metadata
     id="metadata10409">
    <rdf:RDF>
      <cc:Work
         rdf:about="">
        <dc:format>image/svg+xml</dc:format>
        <dc:type
           rdf:resource="http://purl.org/dc/dcmitype/StillImage" />
      </cc:Work>
    </rdf:RDF>
  </metadata>
  <defs
     id="defs4">
    <inkscape:perspective
       id="perspective10411"
       inkscape:persp3d-origin="372.04724 : 350.78739 : 1"
       inkscape:vp_z="744.09448 : 526.18109 : 1"
       inkscape:vp_y="0 : 1000 : 0"
       inkscape:vp_x="0 : 526.18109 : 1"
       sodipodi:type="inkscape:persp3d" />
    <marker
       style="overflow:visible"
       id="DotM"
       orient="auto"
       refY="0"
       refX="0">
      <path
         style="fill-rule:evenodd;stroke:#000000;stroke-width:1pt;marker-start:none;marker-end:none"
         id="path3275"
         transform="matrix(0.4,0,0,0.4,2.96,0.4)"
         d="M -2.5,-1 C -2.5,1.76 -4.74,4 -7.5,4 C -10.26,4 -12.5,1.76 -12.5,-1 C -12.5,-3.76 -10.26,-6 -7.5,-6 C -4.74,-6 -2.5,-3.76 -2.5,-1 z" />
    </marker>
    <marker
       style="overflow:visible"
       id="DotL"
       orient="auto"
       refY="0"
       refX="0">
      <path
         style="fill-rule:evenodd;stroke:#000000;stroke-width:1pt;marker-start:none;marker-end:none"
         id="path3272"
         transform="matrix(0.8,0,0,0.8,5.92,0.8)"
         d="M -2.5,-1 C -2.5,1.76 -4.74,4 -7.5,4 C -10.26,4 -12.5,1.76 -12.5,-1 C -12.5,-3.76 -10.26,-6 -7.5,-6 C -4.74,-6 -2.5,-3.76 -2.5,-1 z" />
    </marker>
    <marker
       style="overflow:visible"
       id="Arrow1Mend"
       orient="auto"
       refY="0"
       refX="0">
      <path
         style="fill-rule:evenodd;stroke:#000000;stroke-width:1pt;marker-start:none"
         id="path3219"
         transform="matrix(-0.4,0,0,-0.4,-4,0)"
         d="M 0,0 L 5,-5 L -12.5,0 L 5,5 L 0,0 z" />
    </marker>
    <marker
       style="overflow:visible"
       id="Arrow1Lend"
       orient="auto"
       refY="0"
       refX="0">
      <path
         style="fill-rule:evenodd;stroke:#000000;stroke-width:1pt;marker-start:none"
         id="path3213"
         transform="matrix(-0.8,0,0,-0.8,-10,0)"
         d="M 0,0 L 5,-5 L -12.5,0 L 5,5 L 0,0 z" />
    </marker>
  </defs>
  <rect
     width="420.22345"
     height="420.22345"
     x="55.02441"
     y="96.8675"
     id="rect2383"
     style="fill:none;fill-opacity:1;stroke:#000000;stroke-width:1;stroke-miterlimit:4;stroke-dasharray:none;stroke-dashoffset:0;stroke-opacity:1" />
  <rect
     width="55.714287"
     height="15.714286"
     x="215.8504"
     y="387.07422"
     id="rect3193"
     style="fill:#ff2a2a;fill-opacity:1;stroke:none;stroke-width:2.5;stroke-miterlimit:4;stroke-dasharray:none;stroke-dashoffset:0;stroke-opacity:1" />
  <path
     d="M 215.42328,403.95387 L 271.99182,403.95387"
     id="path2409"
     style="fill:none;fill-rule:evenodd;stroke:#000000;stroke-width:5;stroke-linecap:butt;stroke-linejoin:miter;stroke-miterlimit:4;stroke-dasharray:none;stroke-opacity:1" />
  <path
     d="M 215.42328,386.27107 L 271.99182,386.27107"
     id="path2411"
     style="fill:none;fill-rule:evenodd;stroke:#000000;stroke-width:5;stroke-linecap:butt;stroke-linejoin:miter;stroke-miterlimit:4;stroke-dasharray:none;stroke-opacity:1" />
  <path
     d="M 243.61409,403.96594 L 243.61409,552.9393"
     id="path3183"
     style="fill:none;fill-rule:evenodd;stroke:#000000;stroke-width:2.5;stroke-linecap:butt;stroke-linejoin:miter;stroke-miterlimit:4;stroke-dasharray:none;stroke-opacity:1" />
  <path
     d="M 225.7297,553.01265 L 261.08504,553.01265"
     id="path3185"
     style="fill:none;fill-rule:evenodd;stroke:#000000;stroke-width:2.5;stroke-linecap:butt;stroke-linejoin:miter;stroke-miterlimit:4;stroke-dasharray:none;stroke-opacity:1" />
  <path
     d="M 230.64154,558.8235 L 256.1732,558.8235"
     id="path3187"
     style="fill:none;fill-rule:evenodd;stroke:#000000;stroke-width:2.5;stroke-linecap:butt;stroke-linejoin:miter;stroke-miterlimit:4;stroke-dasharray:none;stroke-opacity:1" />
  <path
     d="M 235.79896,564.63435 L 251.01577,564.63435"
     id="path3189"
     style="fill:none;fill-rule:evenodd;stroke:#000000;stroke-width:2.5;stroke-linecap:butt;stroke-linejoin:miter;stroke-miterlimit:4;stroke-dasharray:none;stroke-opacity:1" />
  <path
     d="M 238.99166,570.44522 L 247.82308,570.44522"
     id="path3191"
     style="fill:none;fill-rule:evenodd;stroke:#000000;stroke-width:2.5;stroke-linecap:butt;stroke-linejoin:miter;stroke-miterlimit:4;stroke-dasharray:none;stroke-opacity:1" />
  <path
     d="M 37.79235,301.48901 L 156.48527,420.18193"
     id="path3205"
     style="fill:none;fill-rule:evenodd;stroke:#800080;stroke-width:1px;stroke-linecap:butt;stroke-linejoin:miter;marker-end:url(#Arrow1Lend);stroke-opacity:1" />
  <path
     d="M 80.1631,233.84597 L 198.85602,352.53889"
     id="path3985"
     style="fill:none;fill-rule:evenodd;stroke:#800080;stroke-width:1px;stroke-linecap:butt;stroke-linejoin:miter;marker-end:url(#Arrow1Lend);stroke-opacity:1" />
  <path
     d="M 53.48072,278.20347 L 172.17364,396.89639"
     id="path3987"
     style="fill:none;fill-rule:evenodd;stroke:#800080;stroke-width:1px;stroke-linecap:butt;stroke-linejoin:miter;marker-end:url(#Arrow1Lend);stroke-opacity:1" />
  <path
     d="M 67.94484,251.90105 L 186.63776,370.59397"
     id="path3989"
     style="fill:none;fill-rule:evenodd;stroke:#800080;stroke-width:1px;stroke-linecap:butt;stroke-linejoin:miter;marker-end:url(#Arrow1Lend);stroke-opacity:1" />
  <path
     d="M 245.72787,384.76097 L 245.72787,191.82184 L 207.34207,191.82184 L 207.34207,209.33055 L 207.34207,148.38528 L 207.34207,164.54772 L 245.60531,164.54772 L 245.60531,59.49185"
     id="path3991"
     style="fill:none;fill-rule:evenodd;stroke:#000000;stroke-width:2;stroke-linecap:butt;stroke-linejoin:miter;marker-end:url(#DotM);stroke-miterlimit:4;stroke-dasharray:none;stroke-opacity:1" />
  <path
     d="M 207.34207,177.6797 L 112.38772,177.6797 L 112.38772,59.49185"
     id="path3993"
     style="fill:none;fill-rule:evenodd;stroke:#000000;stroke-width:2;stroke-linecap:butt;stroke-linejoin:miter;marker-end:url(#DotM);stroke-miterlimit:4;stroke-dasharray:none;stroke-opacity:1" />
  <g
     transform="matrix(0.7100854,0,0,0.7100854,-546.17514,-266.70455)"
     id="g4025">
    <g
       transform="matrix(1.0629921,0,0,-1.0629921,-186.02362,789.27165)"
       id="content"
       xml:space="preserve"
       style="font-style:normal;font-variant:normal;font-weight:normal;font-stretch:normal;letter-spacing:normal;word-spacing:normal;text-anchor:start;fill:none;fill-opacity:1;stroke:#000000;stroke-linecap:butt;stroke-linejoin:miter;stroke-miterlimit:10.43299961;stroke-dasharray:none;stroke-dashoffset:0;stroke-opacity:1"><path
         d="M 1209.3,374.34 L 1209.5,374.7 L 1209.7,375.03 L 1210,375.34 L 1210.2,375.63 L 1210.4,375.91 L 1210.6,376.16 L 1210.8,376.4 L 1211,376.62 L 1211.3,376.82 L 1211.5,377 L 1211.7,377.18 L 1211.9,377.33 L 1212.1,377.48 L 1212.3,377.61 L 1212.5,377.72 L 1212.7,377.83 L 1212.9,377.93 L 1213.1,378.01 L 1213.3,378.09 L 1213.5,378.15 L 1213.7,378.21 L 1213.9,378.26 L 1214,378.3 L 1214.2,378.34 L 1214.4,378.37 L 1214.6,378.39 L 1215,378.43 L 1215.3,378.46 L 1215.7,378.48 C 1216.3,378.53 1216.3,379.38 1216.3,379.43 C 1216.3,379.82 1216.1,380.02 1215.7,380.02 L 1206.6,380.02 C 1206.3,380.02 1205.7,380.02 1205.7,379.07 C 1205.7,378.53 1206.1,378.48 1206.5,378.48 C 1207.8,378.38 1208.8,377.88 1208.8,376.84 C 1208.8,376.09 1208,374.99 1208,374.94 L 1192.8,350.63 L 1189.4,376.98 C 1189.4,377.83 1190.5,378.48 1192.8,378.48 C 1193.5,378.48 1194,378.48 1194,379.47 C 1194,379.92 1193.6,380.02 1193.3,380.02 L 1181.7,380.02 C 1181.4,380.02 1180.8,380.02 1180.8,379.07 C 1180.8,378.48 1181.2,378.48 1182,378.48 C 1184.8,378.48 1184.9,378.03 1185,376.79 L 1189,346.05 C 1189.1,345.05 1189.3,344.9 1190,344.9 C 1190.8,344.9 1190.9,345.15 1191.3,345.8 L 1209.3,374.34 z"
         id="path4028"
         style="fill:#000000;stroke-width:0" /><path
         d="M 1227.7,350.86 L 1228.1,350.95 L 1228.5,351.06 L 1228.9,351.17 L 1229.2,351.29 L 1229.6,351.42 L 1230,351.56 L 1230.3,351.71 L 1230.7,351.86 L 1231,352.02 L 1231.4,352.19 L 1231.7,352.37 L 1232,352.55 L 1232.3,352.74 L 1232.6,352.94 L 1232.9,353.14 L 1233.2,353.35 L 1233.5,353.57 L 1233.7,353.79 L 1233.9,354.02 L 1234.2,354.25 L 1234.4,354.49 L 1234.6,354.74 L 1234.8,354.99 L 1234.9,355.24 L 1235.1,355.5 L 1235.2,355.77 L 1235.3,356.04 L 1235.4,356.31 L 1235.5,356.59 L 1235.5,356.87 L 1235.5,357.16 L 1235.6,357.45 C 1235.6,360.45 1232,362.82 1226.9,362.82 L 1216.2,362.82 C 1215.6,362.82 1215.1,362.82 1215.1,362.05 C 1215.1,361.56 1215.5,361.56 1216.2,361.56 C 1216.3,361.56 1216.9,361.56 1217.6,361.49 C 1218.3,361.42 1218.4,361.35 1218.4,361 C 1218.4,360.93 1218.4,360.76 1218.2,360.23 L 1213.6,341.72 C 1213.3,340.54 1213.2,340.25 1210.5,340.25 C 1209.9,340.25 1209.5,340.25 1209.5,339.52 C 1209.5,339.18 1209.7,339 1210,339 L 1219.1,339 C 1219.2,339 1219.8,339 1219.8,339.73 C 1219.8,340.25 1219.4,340.25 1218.6,340.25 C 1218.1,340.25 1217.9,340.25 1217.3,340.32 C 1216.6,340.43 1216.6,340.5 1216.6,340.85 C 1216.6,340.88 1216.6,341.09 1216.7,341.61 L 1218.9,350.44 L 1223.6,350.44 L 1223.7,351.41 L 1219.2,351.41 L 1221.4,360.38 C 1221.6,361.35 1221.7,361.46 1222.5,361.56 L 1224.7,361.56 C 1228,361.56 1232,361.56 1232,357.97 C 1232,356.54 1231.3,354.34 1229.7,353.09 C 1228.2,351.97 1226.1,351.41 1223.7,351.41 L 1223.6,350.44 C 1226.6,350.44 1227.9,348.94 1227.9,347.3 C 1227.9,346.84 1227.6,345.66 1227.4,344.86 C 1227,343.25 1226.9,342.73 1226.9,342.14 C 1226.9,339.38 1229.4,338.3 1232,338.3 C 1235.2,338.3 1236.6,341.72 1236.6,342.35 C 1236.6,342.45 1236.5,342.84 1236,342.84 C 1235.6,342.84 1235.5,342.59 1235.4,342.24 C 1234.9,340.71 1233.6,339.28 1232.1,339.28 C 1231.2,339.28 1230.6,339.66 1230.6,341.55 C 1230.6,342.42 1230.8,344.23 1230.9,345.17 C 1231.1,346.11 1231.1,346.46 1231.1,346.81 C 1231.1,347.23 1231.1,348.34 1230.1,349.39 C 1229.4,350.12 1228.5,350.58 1227.7,350.86 z"
         id="path4030"
         style="fill:#000000;stroke-width:0" /><path
         d="M 1265.6,347.05 L 1265.6,347.08 L 1265.6,347.1 L 1265.6,347.12 L 1265.7,347.14 L 1265.7,347.16 L 1265.7,347.17 L 1265.7,347.19 L 1265.7,347.21 L 1265.7,347.25 L 1265.7,347.28 L 1265.7,347.31 L 1265.7,347.34 L 1265.7,347.37 L 1265.8,347.39 L 1265.8,347.42 L 1265.8,347.44 L 1265.8,347.47 L 1265.8,347.49 L 1265.8,347.51 L 1265.8,347.53 L 1265.8,347.54 L 1265.8,347.56 L 1265.8,347.57 L 1265.8,347.59 L 1265.8,347.6 L 1265.8,347.61 L 1265.8,347.62 L 1265.8,347.63 L 1265.8,347.64 L 1265.8,347.65 L 1265.8,347.66 L 1265.8,347.67 L 1265.8,347.67 L 1265.8,347.68 L 1265.8,347.68 L 1265.8,347.68 C 1265.8,347.89 1265.7,348.17 1265.2,348.17 C 1265.2,348.17 1265,348.17 1264.8,348.03 C 1264.8,347.96 1264.8,347.93 1264.3,347.02 C 1262.1,342 1260.3,340.25 1254.6,340.25 L 1248.7,340.25 C 1247.6,340.25 1247.6,340.29 1247.6,340.61 C 1247.6,340.64 1247.6,340.81 1247.7,341.34 L 1250,350.68 L 1253.9,350.68 C 1256.7,350.68 1257.1,350.23 1257.1,349.08 C 1257.1,348.7 1257,348.1 1256.9,347.51 C 1256.8,347.2 1256.8,347.16 1256.8,347.09 C 1256.8,347.02 1256.8,346.6 1257.3,346.6 C 1257.8,346.6 1257.9,346.78 1258,347.37 L 1259.9,355 C 1260,355.42 1260,355.49 1260,355.53 C 1260,355.88 1259.8,356.02 1259.4,356.02 C 1259,356.02 1259,355.84 1258.8,355.11 C 1258,352.39 1257,351.94 1254,351.94 L 1250.3,351.94 L 1252.4,360.23 C 1252.7,361.32 1252.8,361.42 1254.2,361.42 L 1259.9,361.42 C 1264.5,361.42 1265.6,360.48 1265.6,357.38 C 1265.6,356.47 1265.5,355.42 1265.5,355.25 C 1265.5,354.97 1265.6,354.66 1266.1,354.66 C 1266.6,354.66 1266.6,354.97 1266.7,355.56 L 1267.3,361.63 C 1267.4,362.68 1267.2,362.68 1266.3,362.68 L 1247.1,362.68 C 1246.4,362.68 1246,362.68 1246,361.91 C 1246,361.42 1246.4,361.42 1247.2,361.42 C 1247.7,361.42 1247.9,361.42 1248.5,361.35 C 1249.2,361.28 1249.3,361.21 1249.3,360.86 C 1249.3,360.62 1249.2,360.27 1249.1,360.1 L 1244.6,341.86 C 1244.2,340.5 1244.2,340.25 1241.4,340.25 C 1240.8,340.25 1240.4,340.25 1240.4,339.49 C 1240.4,339 1240.8,339 1241.4,339 L 1261.2,339 C 1262,339 1262.1,339 1262.3,339.63 L 1265.6,347.05 z"
         id="path4032"
         style="fill:#000000;stroke-width:0" /><path
         d="M 1280.9,350.23 L 1284.7,350.23 C 1287.3,350.23 1287.8,349.81 1287.8,348.66 C 1287.8,348.14 1287.8,348.07 1287.5,347.09 C 1287.4,346.88 1287.4,346.78 1287.4,346.67 C 1287.4,346.32 1287.7,346.15 1288,346.15 C 1288.5,346.15 1288.5,346.32 1288.7,346.95 L 1290.6,354.34 C 1290.6,354.45 1290.7,354.97 1290.7,355.04 C 1290.7,355.39 1290.4,355.56 1290.1,355.56 C 1289.6,355.56 1289.6,355.36 1289.4,354.73 C 1288.7,352.01 1287.7,351.48 1284.7,351.48 L 1281.2,351.48 L 1283.4,360.23 C 1283.7,361.32 1283.8,361.42 1285.2,361.42 L 1290.6,361.42 C 1295.2,361.42 1296.1,360.3 1296.1,357.41 C 1296.1,356.26 1295.9,355.53 1295.9,355.25 C 1295.9,354.97 1296,354.66 1296.5,354.66 C 1297,354.66 1297.1,354.97 1297.1,355.56 L 1297.8,361.63 C 1297.9,362.68 1297.6,362.68 1296.8,362.68 L 1278.1,362.68 C 1277.5,362.68 1277,362.68 1277,361.91 C 1277,361.42 1277.4,361.42 1278.1,361.42 C 1278.2,361.42 1278.8,361.42 1279.5,361.35 C 1280.2,361.28 1280.3,361.21 1280.3,360.86 C 1280.3,360.62 1280.2,360.27 1280.1,360.1 L 1275.6,341.86 C 1275.2,340.5 1275.2,340.25 1272.4,340.25 C 1271.9,340.25 1271.4,340.25 1271.4,339.52 C 1271.4,339.18 1271.7,339 1272,339 L 1282,339 C 1282.2,339 1282.8,339 1282.8,339.77 C 1282.8,340.25 1282.4,340.25 1281.6,340.25 C 1281.5,340.25 1280.6,340.25 1279.7,340.32 C 1279,340.39 1278.7,340.43 1278.7,340.92 C 1278.7,341.06 1278.7,341.16 1278.8,341.55 L 1280.9,350.23 z"
         id="path4034"
         style="fill:#000000;stroke-width:0" /></g>  </g>
  <path
     d="M 244.57475,218.33688 L 308.86047,218.33688 L 308.86047,152.6226 L 348.86047,152.6226 L 348.86047,124.76545 L 348.86047,199.76545 L 348.86047,178.33688 L 381.71761,178.33688 L 381.71761,259.05117 L 504.57475,259.05117"
     id="path4076"
     style="fill:none;fill-rule:evenodd;stroke:#000000;stroke-width:2;stroke-linecap:butt;stroke-linejoin:miter;marker-end:url(#Arrow1Mend);stroke-miterlimit:4;stroke-dasharray:none;stroke-opacity:1" />
  <path
     d="M 348.76343,135.75837 L 382.60354,135.75837 L 382.60354,59.49185"
     id="path4078"
     style="fill:none;fill-rule:evenodd;stroke:#000000;stroke-width:2;stroke-linecap:butt;stroke-linejoin:miter;marker-end:url(#DotM);stroke-miterlimit:4;stroke-dasharray:none;stroke-opacity:1" />
  <g
     transform="matrix(0.6887568,0,0,0.6887568,-392.88305,-257.49514)"
     id="g4114">
    <g
       transform="matrix(1.0629921,0,0,-1.0629921,-186.02362,789.27165)"
       id="g4116"
       xml:space="preserve"
       style="font-style:normal;font-variant:normal;font-weight:normal;font-stretch:normal;letter-spacing:normal;word-spacing:normal;text-anchor:start;fill:none;fill-opacity:1;stroke:#000000;stroke-linecap:butt;stroke-linejoin:miter;stroke-miterlimit:10.43299961;stroke-dasharray:none;stroke-dashoffset:0;stroke-opacity:1"><path
         d="M 1222.3,374.34 L 1222.5,374.7 L 1222.7,375.03 L 1223,375.34 L 1223.2,375.63 L 1223.4,375.91 L 1223.6,376.16 L 1223.8,376.4 L 1224,376.62 L 1224.3,376.82 L 1224.5,377 L 1224.7,377.18 L 1224.9,377.33 L 1225.1,377.48 L 1225.3,377.61 L 1225.5,377.72 L 1225.7,377.83 L 1225.9,377.93 L 1226.1,378.01 L 1226.3,378.09 L 1226.5,378.15 L 1226.7,378.21 L 1226.9,378.26 L 1227,378.3 L 1227.2,378.34 L 1227.4,378.37 L 1227.6,378.39 L 1228,378.43 L 1228.3,378.46 L 1228.7,378.48 C 1229.3,378.53 1229.3,379.38 1229.3,379.43 C 1229.3,379.82 1229.1,380.02 1228.7,380.02 L 1219.6,380.02 C 1219.3,380.02 1218.7,380.02 1218.7,379.07 C 1218.7,378.53 1219.1,378.48 1219.5,378.48 C 1220.8,378.38 1221.8,377.88 1221.8,376.84 C 1221.8,376.09 1221,374.99 1221,374.94 L 1205.8,350.63 L 1202.4,376.98 C 1202.4,377.83 1203.5,378.48 1205.8,378.48 C 1206.5,378.48 1207,378.48 1207,379.47 C 1207,379.92 1206.6,380.02 1206.3,380.02 L 1194.7,380.02 C 1194.4,380.02 1193.8,380.02 1193.8,379.07 C 1193.8,378.48 1194.2,378.48 1195,378.48 C 1197.8,378.48 1197.9,378.03 1198,376.79 L 1202,346.05 C 1202.1,345.05 1202.3,344.9 1203,344.9 C 1203.8,344.9 1203.9,345.15 1204.3,345.8 L 1222.3,374.34 z"
         id="path4118"
         style="fill:#000000;stroke-width:0" /><path
         d="M 1226.6,341.72 L 1226.6,341.61 L 1226.5,341.51 L 1226.5,341.41 L 1226.5,341.32 L 1226.5,341.23 L 1226.4,341.14 L 1226.4,341.07 L 1226.4,340.99 L 1226.3,340.92 L 1226.3,340.85 L 1226.3,340.79 L 1226.2,340.74 L 1226.2,340.68 L 1226.1,340.63 L 1226,340.59 L 1226,340.54 L 1225.9,340.5 L 1225.8,340.47 L 1225.7,340.43 L 1225.6,340.41 L 1225.5,340.38 L 1225.4,340.37 L 1225.4,340.36 L 1225.3,340.34 L 1225.2,340.33 L 1225.2,340.33 L 1225.1,340.32 L 1225,340.31 L 1225,340.3 L 1224.9,340.29 L 1224.8,340.29 L 1224.7,340.28 L 1224.6,340.28 L 1224.5,340.27 L 1224.4,340.27 L 1224.3,340.26 L 1224.2,340.26 L 1224.1,340.26 L 1224,340.26 L 1223.9,340.26 L 1223.8,340.25 L 1223.6,340.25 L 1223.5,340.25 C 1222.9,340.25 1222.5,340.25 1222.5,339.49 C 1222.5,339 1222.9,339 1223.5,339 L 1236,339 L 1235.3,340.25 L 1230.6,340.25 C 1229.5,340.25 1229.5,340.29 1229.5,340.61 C 1229.5,340.64 1229.5,340.81 1229.6,341.34 L 1234.4,360.38 C 1234.7,361.46 1234.7,361.56 1236.2,361.56 L 1240.6,361.56 C 1244.6,361.56 1247.8,359.61 1247.8,354.87 C 1247.8,354.06 1247.5,348.03 1244,344.05 C 1242.6,342.49 1239.6,340.25 1235.3,340.25 L 1236,339 C 1243.7,339 1251.1,346.11 1251.1,353.71 C 1251.1,358.8 1247.6,362.82 1241.9,362.82 L 1229.2,362.82 C 1228.5,362.82 1228.1,362.82 1228.1,362.05 C 1228.1,361.56 1228.5,361.56 1229.3,361.56 C 1229.8,361.56 1230,361.56 1230.6,361.49 C 1231.3,361.42 1231.4,361.35 1231.4,361 C 1231.4,360.93 1231.4,360.76 1231.2,360.23 L 1226.6,341.72 z"
         id="path4120"
         style="fill:#000000;stroke-width:0" /><path
         d="M 1259.6,341.72 L 1259.6,341.61 L 1259.5,341.51 L 1259.5,341.41 L 1259.5,341.32 L 1259.5,341.23 L 1259.4,341.14 L 1259.4,341.07 L 1259.4,340.99 L 1259.3,340.92 L 1259.3,340.85 L 1259.3,340.79 L 1259.2,340.74 L 1259.2,340.68 L 1259.1,340.63 L 1259,340.59 L 1259,340.54 L 1258.9,340.5 L 1258.8,340.47 L 1258.7,340.43 L 1258.6,340.41 L 1258.5,340.38 L 1258.4,340.37 L 1258.4,340.36 L 1258.3,340.34 L 1258.2,340.33 L 1258.2,340.33 L 1258.1,340.32 L 1258,340.31 L 1258,340.3 L 1257.9,340.29 L 1257.8,340.29 L 1257.7,340.28 L 1257.6,340.28 L 1257.5,340.27 L 1257.4,340.27 L 1257.3,340.26 L 1257.2,340.26 L 1257.1,340.26 L 1257,340.26 L 1256.9,340.26 L 1256.8,340.25 L 1256.6,340.25 L 1256.5,340.25 C 1255.9,340.25 1255.5,340.25 1255.5,339.49 C 1255.5,339 1255.9,339 1256.5,339 L 1269,339 L 1268.3,340.25 L 1263.6,340.25 C 1262.5,340.25 1262.5,340.29 1262.5,340.61 C 1262.5,340.64 1262.5,340.81 1262.6,341.34 L 1267.4,360.38 C 1267.7,361.46 1267.7,361.56 1269.2,361.56 L 1273.6,361.56 C 1277.6,361.56 1280.8,359.61 1280.8,354.87 C 1280.8,354.06 1280.5,348.03 1277,344.05 C 1275.6,342.49 1272.6,340.25 1268.3,340.25 L 1269,339 C 1276.7,339 1284.1,346.11 1284.1,353.71 C 1284.1,358.8 1280.6,362.82 1274.9,362.82 L 1262.2,362.82 C 1261.5,362.82 1261.1,362.82 1261.1,362.05 C 1261.1,361.56 1261.5,361.56 1262.3,361.56 C 1262.8,361.56 1263,361.56 1263.6,361.49 C 1264.3,361.42 1264.4,361.35 1264.4,361 C 1264.4,360.93 1264.4,360.76 1264.2,360.23 L 1259.6,341.72 z"
         id="path4122"
         style="fill:#000000;stroke-width:0" /></g>  </g>
  <text
     x="114.24045"
     y="30.540737"
     id="text4161"
     xml:space="preserve"
     style="font-size:40px;font-style:normal;font-weight:normal;fill:#000000;fill-opacity:1;stroke:none;stroke-width:1px;stroke-linecap:butt;stroke-linejoin:miter;stroke-opacity:1;font-family:Bitstream Vera Sans"><tspan
       x="114.24045"
       y="30.540737"
       id="tspan4165"
       style="font-size:24px;text-align:center;text-anchor:middle">Reset gate</tspan></text>
  <text
     x="292.94611"
     y="435.04138"
     id="text4524"
     xml:space="preserve"
     style="font-size:40px;font-style:normal;font-weight:normal;fill:#d70202;fill-opacity:0.97254902;stroke:none;stroke-width:1px;stroke-linecap:butt;stroke-linejoin:miter;stroke-opacity:1;font-family:Bitstream Vera Sans"><tspan
       x="292.94611"
       y="435.04138"
       id="tspan4532"
       style="font-size:24px;text-align:center;text-anchor:middle;fill:#d70202;fill-opacity:0.97254902">Sense</tspan><tspan
       x="292.94611"
       y="465.04138"
       id="tspan4546"
       style="font-size:24px;text-align:center;text-anchor:middle;fill:#d70202;fill-opacity:0.97254902">Node</tspan><tspan
       x="292.94611"
       y="495.04138"
       id="tspan4548"
       style="font-size:24px;text-align:center;text-anchor:middle;fill:#d70202;fill-opacity:0.97254902">(SN)</tspan></text>
  <rect
     width="148.59245"
     height="177.68382"
     x="325.22598"
     y="97.897438"
     id="rect4534"
     style="fill:#00ff00;fill-opacity:0.3807692;stroke:none;stroke-width:2;stroke-miterlimit:4;stroke-dasharray:none;stroke-dashoffset:0;stroke-opacity:1" />
  <text
     x="425.70093"
     y="153.46404"
     id="text4538"
     xml:space="preserve"
     style="font-size:33.29611969px;font-style:normal;font-weight:normal;fill:#00a400;fill-opacity:1;stroke:none;stroke-width:1px;stroke-linecap:butt;stroke-linejoin:miter;stroke-opacity:1;font-family:Bitstream Vera Sans"><tspan
       x="425.70093"
       y="153.46404"
       id="tspan4540"
       style="font-size:19.97767258px;text-align:center;text-anchor:middle;fill:#00a400;fill-opacity:1">Source</tspan><tspan
       x="425.70093"
       y="178.43611"
       id="tspan4542"
       style="font-size:19.97767258px;text-align:center;text-anchor:middle;fill:#00a400;fill-opacity:1">Follower</tspan><tspan
       x="425.70093"
       y="203.40822"
       id="tspan4550"
       style="font-size:19.97767258px;text-align:center;text-anchor:middle;fill:#00a400;fill-opacity:1">(SF)</tspan></text>
  <text
     x="36.139614"
     y="265.03873"
     id="text4552"
     xml:space="preserve"
     style="font-size:40px;font-style:normal;font-weight:normal;fill:#00a400;fill-opacity:1;stroke:none;stroke-width:1px;stroke-linecap:butt;stroke-linejoin:miter;stroke-opacity:1;font-family:Bitstream Vera Sans"><tspan
       x="36.139614"
       y="265.03873"
       id="tspan4558"
       style="font-size:24px;text-align:center;text-anchor:middle;fill:#ff00ff;fill-opacity:1">Light</tspan></text>
  <g
     transform="matrix(0.703888,0,0,0.703888,-536.05444,133.21902)"
     id="g4565"
     style="fill:#d40000">
    <g
       transform="matrix(1.0629921,0,0,-1.0629921,-186.02362,789.27165)"
       id="g4567"
       xml:space="preserve"
       style="font-style:normal;font-variant:normal;font-weight:normal;font-stretch:normal;letter-spacing:normal;word-spacing:normal;fill:#d40000;stroke-miterlimit:10.43299961" />  </g>
  <text
     x="173.52039"
     y="440.8053"
     id="text4575"
     xml:space="preserve"
     style="font-size:40px;font-style:normal;font-weight:normal;fill:#00a400;fill-opacity:1;stroke:none;stroke-width:1px;stroke-linecap:butt;stroke-linejoin:miter;stroke-opacity:1;font-family:Bitstream Vera Sans"><tspan
       x="173.52039"
       y="440.8053"
       id="tspan4581"
       style="font-size:24px;text-align:center;text-anchor:middle;fill:#ff2a2a;fill-opacity:1" /></text>
  <g
     transform="matrix(0.713825,0,0,0.713825,-239.14451,-33.015012)"
     id="g4843"
     style="fill:#008000">
    <g
       transform="matrix(1.0629921,0,0,-1.0629921,-186.02362,789.27165)"
       id="g4845"
       xml:space="preserve"
       style="font-style:normal;font-variant:normal;font-weight:normal;font-stretch:normal;letter-spacing:normal;word-spacing:normal;text-anchor:start;fill:#008000;fill-opacity:1;stroke:#000000;stroke-linecap:butt;stroke-linejoin:miter;stroke-miterlimit:10.43299961;stroke-dasharray:none;stroke-dashoffset:0;stroke-opacity:1"><path
         d="M 1192.1,380.62 L 1192.1,380.64 L 1192.1,380.65 L 1192.1,380.67 L 1192.1,380.69 L 1192.1,380.7 L 1192.1,380.72 L 1192.1,380.74 L 1192.1,380.76 L 1192.1,380.78 L 1192.1,380.8 L 1192.1,380.82 L 1192.1,380.84 L 1192.1,380.86 L 1192.1,380.88 L 1192,380.9 L 1192,380.92 L 1192,380.94 L 1192,380.96 L 1192,380.98 L 1192,381 L 1191.9,381.02 L 1191.9,381.03 L 1191.9,381.05 L 1191.9,381.06 L 1191.8,381.07 L 1191.8,381.08 L 1191.8,381.08 L 1191.8,381.09 L 1191.8,381.09 L 1191.7,381.1 L 1191.7,381.1 L 1191.7,381.11 L 1191.7,381.11 L 1191.7,381.11 L 1191.7,381.11 L 1191.6,381.11 L 1191.6,381.12 L 1191.6,381.12 L 1191.6,381.12 C 1191.3,381.12 1191.3,381.07 1190.7,380.37 L 1188.3,377.53 C 1187,379.87 1184.4,381.12 1181.2,381.12 C 1174.8,381.12 1168.9,375.39 1168.9,369.36 C 1168.9,365.33 1171.5,363.04 1174.1,362.29 L 1179.4,360.89 C 1181.2,360.45 1184,359.7 1184,355.61 C 1184,351.13 1179.9,346.45 1175,346.45 C 1171.8,346.45 1166.3,347.54 1166.3,353.72 C 1166.3,354.92 1166.5,356.11 1166.6,356.41 C 1166.6,356.61 1166.7,356.66 1166.7,356.76 C 1166.7,357.26 1166.3,357.31 1166.1,357.31 C 1165.8,357.31 1165.7,357.26 1165.6,357.11 C 1165.4,356.91 1162.6,345.55 1162.6,345.4 C 1162.6,345.1 1162.8,344.9 1163.1,344.9 C 1163.4,344.9 1163.4,344.95 1164,345.65 L 1166.5,348.49 C 1168.6,345.6 1172,344.9 1174.9,344.9 C 1181.7,344.9 1187.6,351.53 1187.6,357.71 C 1187.6,361.14 1185.8,362.84 1185.1,363.54 C 1184,364.68 1183.2,364.88 1178.8,366.02 C 1177.7,366.32 1175.9,366.82 1175.4,366.92 C 1174.1,367.37 1172.4,368.81 1172.4,371.45 C 1172.4,375.49 1176.4,379.72 1181.1,379.72 C 1185.2,379.72 1188.3,377.58 1188.3,372 C 1188.3,370.41 1188.1,369.51 1188.1,369.21 C 1188.1,369.16 1188.1,368.71 1188.7,368.71 C 1189.2,368.71 1189.2,368.86 1189.4,369.71 L 1192.1,380.62 z"
         id="path4847"
         style="fill:#008000;stroke-width:0" /><path
         d="M 1209.5,334.04 L 1209.5,334.07 L 1209.5,334.1 L 1209.5,334.11 L 1209.5,334.13 L 1209.5,334.14 L 1209.5,334.16 L 1209.5,334.18 L 1209.5,334.19 L 1209.5,334.21 L 1209.4,334.23 L 1209.4,334.26 L 1209.4,334.28 L 1209.4,334.3 L 1209.4,334.33 L 1209.4,334.36 L 1209.3,334.39 L 1209.3,334.42 L 1209.3,334.46 L 1209.3,334.48 L 1209.2,334.5 L 1209.2,334.52 L 1209.2,334.54 L 1209.2,334.56 L 1209.2,334.59 L 1209.2,334.61 L 1209.1,334.63 L 1209.1,334.66 L 1209.1,334.68 L 1209.1,334.71 L 1209,334.74 L 1209,334.77 L 1209,334.8 L 1209,334.83 L 1208.9,334.86 L 1208.9,334.89 L 1208.9,334.92 L 1208.8,334.96 L 1208.8,334.99 L 1208.8,335.03 L 1208.7,335.06 L 1208.7,335.1 L 1208.6,335.14 C 1202.4,341.42 1200.8,350.83 1200.8,358.45 C 1200.8,367.12 1202.7,375.79 1208.8,382.02 C 1209.5,382.61 1209.5,382.71 1209.5,382.86 C 1209.5,383.21 1209.3,383.36 1209,383.36 C 1208.5,383.36 1204,379.97 1201.1,373.64 C 1198.5,368.17 1197.9,362.64 1197.9,358.45 C 1197.9,354.57 1198.5,348.54 1201.2,342.91 C 1204.2,336.79 1208.5,333.55 1209,333.55 C 1209.3,333.55 1209.5,333.7 1209.5,334.04 z"
         id="path4849"
         style="fill:#008000;stroke-width:0" /><path
         d="M 1244.3,374.34 L 1244.5,374.7 L 1244.7,375.03 L 1245,375.34 L 1245.2,375.63 L 1245.4,375.91 L 1245.6,376.16 L 1245.8,376.4 L 1246,376.62 L 1246.3,376.82 L 1246.5,377 L 1246.7,377.18 L 1246.9,377.33 L 1247.1,377.48 L 1247.3,377.61 L 1247.5,377.72 L 1247.7,377.83 L 1247.9,377.93 L 1248.1,378.01 L 1248.3,378.09 L 1248.5,378.15 L 1248.7,378.21 L 1248.9,378.26 L 1249,378.3 L 1249.2,378.34 L 1249.4,378.37 L 1249.6,378.39 L 1250,378.43 L 1250.3,378.46 L 1250.7,378.48 C 1251.3,378.53 1251.3,379.38 1251.3,379.43 C 1251.3,379.82 1251.1,380.02 1250.7,380.02 L 1241.6,380.02 C 1241.3,380.02 1240.7,380.02 1240.7,379.07 C 1240.7,378.53 1241.1,378.48 1241.5,378.48 C 1242.8,378.38 1243.8,377.88 1243.8,376.84 C 1243.8,376.09 1243,374.99 1243,374.94 L 1227.8,350.63 L 1224.4,376.98 C 1224.4,377.83 1225.5,378.48 1227.8,378.48 C 1228.5,378.48 1229,378.48 1229,379.47 C 1229,379.92 1228.6,380.02 1228.3,380.02 L 1216.7,380.02 C 1216.4,380.02 1215.8,380.02 1215.8,379.07 C 1215.8,378.48 1216.2,378.48 1217,378.48 C 1219.8,378.48 1219.9,378.03 1220,376.79 L 1224,346.05 C 1224.1,345.05 1224.3,344.9 1225,344.9 C 1225.8,344.9 1225.9,345.15 1226.3,345.8 L 1244.3,374.34 z"
         id="path4851"
         style="fill:#008000;stroke-width:0" /><path
         d="M 1266.8,363.06 L 1266.8,363.08 L 1266.8,363.09 L 1266.8,363.11 L 1266.8,363.13 L 1266.8,363.15 L 1266.7,363.17 L 1266.7,363.18 L 1266.7,363.2 L 1266.7,363.22 L 1266.7,363.24 L 1266.7,363.26 L 1266.7,363.28 L 1266.7,363.3 L 1266.7,363.32 L 1266.7,363.33 L 1266.7,363.35 L 1266.6,363.37 L 1266.6,363.38 L 1266.6,363.4 L 1266.6,363.41 L 1266.6,363.43 L 1266.6,363.44 L 1266.5,363.45 L 1266.5,363.47 L 1266.5,363.48 L 1266.5,363.49 L 1266.4,363.49 L 1266.4,363.5 L 1266.4,363.5 L 1266.4,363.5 L 1266.4,363.51 L 1266.4,363.51 L 1266.3,363.51 L 1266.3,363.51 L 1266.3,363.51 L 1266.3,363.51 C 1266.1,363.51 1266.1,363.48 1265.6,363.02 L 1263.9,361.04 C 1262.6,362.89 1260.4,363.51 1258.2,363.51 C 1253.3,363.51 1249,359.54 1249,355.53 C 1249,355 1249.1,353.61 1250.1,352.32 C 1251.3,350.93 1252.6,350.61 1255,350.05 C 1255.7,349.88 1257.4,349.5 1257.9,349.36 C 1259.1,349.08 1261.2,348.31 1261.2,345.7 C 1261.2,342.87 1258.2,339.56 1254.2,339.56 C 1251.2,339.56 1247.5,340.64 1247.5,344.51 C 1247.5,344.86 1247.5,345.62 1247.7,346.25 C 1247.7,346.39 1247.7,346.43 1247.7,346.46 C 1247.7,346.91 1247.3,346.91 1247.2,346.91 C 1246.7,346.91 1246.6,346.84 1246.5,346.22 L 1244.7,339.24 C 1244.7,339.11 1244.6,338.89 1244.6,338.72 C 1244.6,338.51 1244.8,338.3 1245.1,338.3 C 1245.3,338.3 1245.3,338.34 1245.8,338.79 C 1246.2,339.21 1247.1,340.32 1247.5,340.74 C 1249.3,338.72 1252,338.3 1254.1,338.3 C 1259.4,338.3 1263.7,342.84 1263.7,346.95 C 1263.7,348.48 1263,349.88 1262.3,350.68 C 1261,351.94 1260.5,352.07 1256,353.12 C 1255.3,353.3 1254.1,353.57 1253.8,353.68 C 1252.9,353.99 1251.5,354.87 1251.5,356.85 C 1251.5,359.61 1254.6,362.4 1258.2,362.4 C 1262,362.4 1263.8,360.27 1263.8,356.96 C 1263.8,356.5 1263.7,355.7 1263.7,355.39 C 1263.7,354.9 1264.1,354.9 1264.2,354.9 C 1264.8,354.9 1264.8,355.07 1264.9,355.67 L 1266.8,363.06 z"
         id="path4853"
         style="fill:#008000;stroke-width:0" /><path
         d="M 1279.9,350.23 L 1283.7,350.23 C 1286.3,350.23 1286.8,349.81 1286.8,348.66 C 1286.8,348.14 1286.8,348.07 1286.5,347.09 C 1286.4,346.88 1286.4,346.78 1286.4,346.67 C 1286.4,346.32 1286.7,346.15 1287,346.15 C 1287.5,346.15 1287.5,346.32 1287.7,346.95 L 1289.6,354.34 C 1289.6,354.45 1289.7,354.97 1289.7,355.04 C 1289.7,355.39 1289.4,355.56 1289.1,355.56 C 1288.6,355.56 1288.6,355.36 1288.4,354.73 C 1287.7,352.01 1286.7,351.48 1283.7,351.48 L 1280.2,351.48 L 1282.4,360.23 C 1282.7,361.32 1282.8,361.42 1284.2,361.42 L 1289.6,361.42 C 1294.2,361.42 1295.1,360.3 1295.1,357.41 C 1295.1,356.26 1294.9,355.53 1294.9,355.25 C 1294.9,354.97 1295,354.66 1295.5,354.66 C 1296,354.66 1296.1,354.97 1296.1,355.56 L 1296.8,361.63 C 1296.9,362.68 1296.6,362.68 1295.8,362.68 L 1277.1,362.68 C 1276.5,362.68 1276,362.68 1276,361.91 C 1276,361.42 1276.4,361.42 1277.1,361.42 C 1277.2,361.42 1277.8,361.42 1278.5,361.35 C 1279.2,361.28 1279.3,361.21 1279.3,360.86 C 1279.3,360.62 1279.2,360.27 1279.1,360.1 L 1274.6,341.86 C 1274.2,340.5 1274.2,340.25 1271.4,340.25 C 1270.9,340.25 1270.4,340.25 1270.4,339.52 C 1270.4,339.18 1270.7,339 1271,339 L 1281,339 C 1281.2,339 1281.8,339 1281.8,339.77 C 1281.8,340.25 1281.4,340.25 1280.6,340.25 C 1280.5,340.25 1279.6,340.25 1278.7,340.32 C 1278,340.39 1277.7,340.43 1277.7,340.92 C 1277.7,341.06 1277.7,341.16 1277.8,341.55 L 1279.9,350.23 z"
         id="path4855"
         style="fill:#008000;stroke-width:0" /><path
         d="M 1315.4,358.45 L 1315.4,358.82 L 1315.4,359.21 L 1315.4,359.6 L 1315.4,360.01 L 1315.3,360.85 L 1315.3,361.73 L 1315.2,362.65 L 1315.1,363.59 L 1314.9,364.57 L 1314.8,365.57 L 1314.6,366.59 L 1314.4,367.63 L 1314.1,368.68 L 1313.8,369.74 L 1313.4,370.8 L 1313,371.87 L 1312.8,372.4 L 1312.6,372.94 L 1312.4,373.47 L 1312.1,374 C 1309.1,380.12 1304.8,383.36 1304.3,383.36 C 1304,383.36 1303.8,383.16 1303.8,382.86 C 1303.8,382.71 1303.8,382.61 1304.8,381.71 C 1309.7,376.79 1312.5,368.86 1312.5,358.45 C 1312.5,349.93 1310.7,341.17 1304.5,334.89 C 1303.8,334.29 1303.8,334.2 1303.8,334.04 C 1303.8,333.75 1304,333.55 1304.3,333.55 C 1304.8,333.55 1309.3,336.93 1312.3,343.26 C 1314.8,348.74 1315.4,354.27 1315.4,358.45 z"
         id="path4857"
         style="fill:#008000;stroke-width:0" /></g>  </g>
  <g
     transform="matrix(0.7336875,0,0,0.7336875,-629.10954,131.7549)"
     id="g5729"
     style="fill:#d40000;fill-opacity:1">
    <g
       transform="matrix(1.0629921,0,0,-1.0629921,-186.02362,789.27165)"
       id="g5731"
       xml:space="preserve"
       style="font-style:normal;font-variant:normal;font-weight:normal;font-stretch:normal;letter-spacing:normal;word-spacing:normal;text-anchor:start;fill:#d40000;fill-opacity:1;stroke:#000000;stroke-linecap:butt;stroke-linejoin:miter;stroke-miterlimit:10.43299960999999954;stroke-dasharray:none;stroke-dashoffset:0;stroke-opacity:1"><path
         d="M 1227.9,380.62 L 1227.9,380.64 L 1227.9,380.65 L 1227.9,380.67 L 1227.9,380.69 L 1227.9,380.7 L 1227.8,380.72 L 1227.8,380.74 L 1227.8,380.76 L 1227.8,380.78 L 1227.8,380.8 L 1227.8,380.82 L 1227.8,380.84 L 1227.8,380.86 L 1227.8,380.88 L 1227.8,380.9 L 1227.8,380.92 L 1227.7,380.94 L 1227.7,380.96 L 1227.7,380.98 L 1227.7,381 L 1227.7,381.02 L 1227.6,381.03 L 1227.6,381.05 L 1227.6,381.06 L 1227.6,381.07 L 1227.5,381.08 L 1227.5,381.08 L 1227.5,381.09 L 1227.5,381.09 L 1227.5,381.1 L 1227.5,381.1 L 1227.4,381.11 L 1227.4,381.11 L 1227.4,381.11 L 1227.4,381.11 L 1227.4,381.11 L 1227.4,381.12 L 1227.3,381.12 L 1227.3,381.12 C 1227.2,381.12 1227.1,381.07 1226.6,380.52 L 1223.1,376.68 C 1222.6,377.38 1220.3,381.12 1214.8,381.12 C 1203.7,381.12 1192.5,370.11 1192.5,358.55 C 1192.5,350.33 1198.4,344.9 1206,344.9 C 1210.3,344.9 1214.1,346.9 1216.8,349.19 C 1221.4,353.27 1222.2,357.8 1222.2,357.96 C 1222.2,358.45 1221.7,358.45 1221.6,358.45 C 1221.3,358.45 1221.1,358.36 1221,357.96 C 1220.5,356.51 1219.4,352.97 1215.9,350.09 C 1212.5,347.3 1209.4,346.45 1206.8,346.45 C 1202.3,346.45 1197,349.04 1197,356.81 C 1197,359.65 1198.1,367.72 1203.1,373.55 C 1206.1,377.08 1210.8,379.57 1215.2,379.57 C 1220.3,379.57 1223.2,375.74 1223.2,369.96 C 1223.2,367.97 1223.1,367.92 1223.1,367.42 C 1223.1,366.92 1223.6,366.92 1223.8,366.92 C 1224.5,366.92 1224.5,367.02 1224.7,367.92 L 1227.9,380.62 z"
         id="path5733"
         style="fill:#d40000;stroke-width:0;fill-opacity:1" /><path
         d="M 1250.8,363.06 L 1250.8,363.08 L 1250.8,363.09 L 1250.8,363.11 L 1250.8,363.13 L 1250.8,363.15 L 1250.7,363.17 L 1250.7,363.18 L 1250.7,363.2 L 1250.7,363.22 L 1250.7,363.24 L 1250.7,363.26 L 1250.7,363.28 L 1250.7,363.3 L 1250.7,363.32 L 1250.7,363.33 L 1250.7,363.35 L 1250.6,363.37 L 1250.6,363.38 L 1250.6,363.4 L 1250.6,363.41 L 1250.6,363.43 L 1250.6,363.44 L 1250.5,363.45 L 1250.5,363.47 L 1250.5,363.48 L 1250.5,363.49 L 1250.4,363.49 L 1250.4,363.5 L 1250.4,363.5 L 1250.4,363.5 L 1250.4,363.51 L 1250.4,363.51 L 1250.3,363.51 L 1250.3,363.51 L 1250.3,363.51 L 1250.3,363.51 C 1250.1,363.51 1250.1,363.48 1249.6,363.02 L 1247.9,361.04 C 1246.6,362.89 1244.4,363.51 1242.2,363.51 C 1237.3,363.51 1233,359.54 1233,355.53 C 1233,355 1233.1,353.61 1234.1,352.32 C 1235.3,350.93 1236.6,350.61 1239,350.05 C 1239.7,349.88 1241.4,349.5 1241.9,349.36 C 1243.1,349.08 1245.2,348.31 1245.2,345.7 C 1245.2,342.87 1242.2,339.56 1238.2,339.56 C 1235.2,339.56 1231.5,340.64 1231.5,344.51 C 1231.5,344.86 1231.5,345.62 1231.7,346.25 C 1231.7,346.39 1231.7,346.43 1231.7,346.46 C 1231.7,346.91 1231.3,346.91 1231.2,346.91 C 1230.7,346.91 1230.6,346.84 1230.5,346.22 L 1228.7,339.24 C 1228.7,339.11 1228.6,338.89 1228.6,338.72 C 1228.6,338.51 1228.8,338.3 1229.1,338.3 C 1229.3,338.3 1229.3,338.34 1229.8,338.79 C 1230.2,339.21 1231.1,340.32 1231.5,340.74 C 1233.3,338.72 1236,338.3 1238.1,338.3 C 1243.4,338.3 1247.7,342.84 1247.7,346.95 C 1247.7,348.48 1247,349.88 1246.3,350.68 C 1245,351.94 1244.5,352.07 1240,353.12 C 1239.3,353.3 1238.1,353.57 1237.8,353.68 C 1236.9,353.99 1235.5,354.87 1235.5,356.85 C 1235.5,359.61 1238.6,362.4 1242.2,362.4 C 1246,362.4 1247.8,360.27 1247.8,356.96 C 1247.8,356.5 1247.7,355.7 1247.7,355.39 C 1247.7,354.9 1248.1,354.9 1248.2,354.9 C 1248.8,354.9 1248.8,355.07 1248.9,355.67 L 1250.8,363.06 z"
         id="path5735"
         style="fill:#d40000;stroke-width:0;fill-opacity:1" /><path
         d="M 1281.1,359.02 L 1281.1,359.26 L 1281.2,359.5 L 1281.3,359.62 L 1281.3,359.74 L 1281.4,359.85 L 1281.4,359.96 L 1281.5,360.07 L 1281.5,360.18 L 1281.6,360.28 L 1281.7,360.38 L 1281.7,360.48 L 1281.8,360.58 L 1281.9,360.67 L 1282,360.76 L 1282.1,360.84 L 1282.2,360.92 L 1282.3,361 L 1282.5,361.07 L 1282.6,361.14 L 1282.8,361.21 L 1282.9,361.27 L 1283.1,361.32 L 1283.2,361.37 L 1283.4,361.41 L 1283.6,361.45 L 1283.8,361.48 L 1284.1,361.51 L 1284.2,361.52 L 1284.3,361.53 L 1284.4,361.54 L 1284.5,361.55 L 1284.7,361.56 L 1284.8,361.56 C 1284.9,361.56 1285.5,361.59 1285.5,362.33 C 1285.5,362.54 1285.3,362.82 1284.9,362.82 L 1277.6,362.82 C 1277.4,362.82 1276.9,362.82 1276.9,362.05 C 1276.9,361.59 1277.4,361.56 1277.7,361.56 C 1279.3,361.53 1279.9,361 1279.9,360.13 C 1279.9,359.85 1279.9,359.68 1279.8,359.29 L 1276,344.09 L 1267.1,362.22 C 1266.9,362.82 1266.8,362.82 1265.9,362.82 L 1261.2,362.82 C 1260.5,362.82 1260.1,362.82 1260.1,362.05 C 1260.1,361.56 1260.5,361.56 1261.2,361.56 C 1261.9,361.56 1262.7,361.53 1263.4,361.39 L 1258.8,342.73 C 1258.4,341.41 1257.9,340.36 1255.1,340.25 C 1254.9,340.25 1254.4,340.22 1254.4,339.52 C 1254.4,339.14 1254.7,339 1254.9,339 L 1262.2,339 C 1262.6,339 1262.9,339.18 1262.9,339.73 C 1262.9,340.22 1262.5,340.25 1262.2,340.25 C 1259.9,340.32 1259.9,341.23 1259.9,341.72 C 1259.9,341.86 1259.9,342.04 1260.1,342.59 L 1264.6,360.45 L 1274.7,339.59 C 1275,339.04 1275.2,339 1275.5,339 C 1276.1,339 1276.1,339.11 1276.2,339.73 L 1281.1,359.02 z"
         id="path5737"
         style="fill:#d40000;stroke-width:0;fill-opacity:1" /></g>  </g>
  <rect
     width="183.9171"
     height="142.32848"
     x="93.096359"
     y="97.426514"
     id="rect9562"
     style="fill:#5555ff;fill-opacity:0.3807692;stroke:none;stroke-width:2;stroke-miterlimit:4;stroke-dasharray:none;stroke-dashoffset:0;stroke-opacity:1" />
  <text
     x="160.68286"
     y="126.07658"
     id="text3995"
     xml:space="preserve"
     style="font-size:40px;font-style:normal;font-weight:normal;fill:#0000aa;fill-opacity:1;stroke:none;stroke-width:1px;stroke-linecap:butt;stroke-linejoin:miter;stroke-opacity:1;font-family:Bitstream Vera Sans"><tspan
       x="164.50317"
       y="126.07658"
       id="tspan3997"
       style="font-size:24px;text-align:center;text-anchor:middle;fill:#0000aa">Reset </tspan><tspan
       x="160.68286"
       y="156.07658"
       id="tspan4066"
       style="font-size:24px;text-align:center;text-anchor:middle;fill:#0000aa">switch</tspan></text>
  <g
     id="g3644"
     transform="matrix(0.7121034,0,0,0.7121034,-491.34017,70.388224)"
     style="fill:#d60101;stroke:#800000;fill-opacity:0.95686275">
    <g
       id="g3646"
       transform="matrix(1.0629921,0,0,-1.0629921,-186.02362,789.27165)"
       xml:space="preserve"
       stroke-miterlimit="10.433"
       fill-rule="even-odd"
       font-style="normal"
       font-variant="normal"
       font-weight="normal"
       font-stretch="normal"
       font-size-adjust="none"
       letter-spacing="normal"
       word-spacing="normal"
       style="font-style:normal;font-variant:normal;font-weight:normal;font-stretch:normal;letter-spacing:normal;word-spacing:normal;text-anchor:start;fill:#d60101;fill-opacity:0.95686275;stroke:#800000;stroke-linecap:butt;stroke-linejoin:miter;stroke-miterlimit:10.43299960999999954;stroke-dasharray:none;stroke-dashoffset:0;stroke-opacity:1"><path
         d="M 1189.1,380.62 L 1189.1,380.64 L 1189.1,380.65 L 1189.1,380.67 L 1189.1,380.69 L 1189.1,380.7 L 1189.1,380.72 L 1189.1,380.74 L 1189.1,380.76 L 1189.1,380.78 L 1189.1,380.8 L 1189.1,380.82 L 1189.1,380.84 L 1189.1,380.86 L 1189.1,380.88 L 1189,380.9 L 1189,380.92 L 1189,380.94 L 1189,380.96 L 1189,380.98 L 1189,381 L 1188.9,381.02 L 1188.9,381.03 L 1188.9,381.05 L 1188.9,381.06 L 1188.8,381.07 L 1188.8,381.08 L 1188.8,381.08 L 1188.8,381.09 L 1188.8,381.09 L 1188.7,381.1 L 1188.7,381.1 L 1188.7,381.11 L 1188.7,381.11 L 1188.7,381.11 L 1188.7,381.11 L 1188.6,381.11 L 1188.6,381.12 L 1188.6,381.12 L 1188.6,381.12 C 1188.3,381.12 1188.3,381.07 1187.7,380.37 L 1185.3,377.53 C 1184,379.87 1181.4,381.12 1178.2,381.12 C 1171.8,381.12 1165.9,375.39 1165.9,369.36 C 1165.9,365.33 1168.5,363.04 1171.1,362.29 L 1176.4,360.89 C 1178.2,360.45 1181,359.7 1181,355.61 C 1181,351.13 1176.9,346.45 1172,346.45 C 1168.8,346.45 1163.3,347.54 1163.3,353.72 C 1163.3,354.92 1163.5,356.11 1163.6,356.41 C 1163.6,356.61 1163.7,356.66 1163.7,356.76 C 1163.7,357.26 1163.3,357.31 1163.1,357.31 C 1162.8,357.31 1162.7,357.26 1162.6,357.11 C 1162.4,356.91 1159.6,345.55 1159.6,345.4 C 1159.6,345.1 1159.8,344.9 1160.1,344.9 C 1160.4,344.9 1160.4,344.95 1161,345.65 L 1163.5,348.49 C 1165.6,345.6 1169,344.9 1171.9,344.9 C 1178.7,344.9 1184.6,351.53 1184.6,357.71 C 1184.6,361.14 1182.8,362.84 1182.1,363.54 C 1181,364.68 1180.2,364.88 1175.8,366.02 C 1174.7,366.32 1172.9,366.82 1172.4,366.92 C 1171.1,367.37 1169.4,368.81 1169.4,371.45 C 1169.4,375.49 1173.4,379.72 1178.1,379.72 C 1182.2,379.72 1185.3,377.58 1185.3,372 C 1185.3,370.41 1185.1,369.51 1185.1,369.21 C 1185.1,369.16 1185.1,368.71 1185.7,368.71 C 1186.2,368.71 1186.2,368.86 1186.4,369.71 L 1189.1,380.62 z"
         id="path3648"
         style="fill:#d60101;stroke-width:0;stroke:#800000;fill-opacity:0.95686275" /><path
         d="M 1207.5,334.04 L 1207.5,334.07 L 1207.5,334.1 L 1207.5,334.11 L 1207.5,334.13 L 1207.5,334.14 L 1207.5,334.16 L 1207.5,334.18 L 1207.5,334.19 L 1207.5,334.21 L 1207.4,334.23 L 1207.4,334.26 L 1207.4,334.28 L 1207.4,334.3 L 1207.4,334.33 L 1207.4,334.36 L 1207.3,334.39 L 1207.3,334.42 L 1207.3,334.46 L 1207.3,334.48 L 1207.2,334.5 L 1207.2,334.52 L 1207.2,334.54 L 1207.2,334.56 L 1207.2,334.59 L 1207.2,334.61 L 1207.1,334.63 L 1207.1,334.66 L 1207.1,334.68 L 1207.1,334.71 L 1207,334.74 L 1207,334.77 L 1207,334.8 L 1207,334.83 L 1206.9,334.86 L 1206.9,334.89 L 1206.9,334.92 L 1206.8,334.96 L 1206.8,334.99 L 1206.8,335.03 L 1206.7,335.06 L 1206.7,335.1 L 1206.6,335.14 C 1200.4,341.42 1198.8,350.83 1198.8,358.45 C 1198.8,367.12 1200.7,375.79 1206.8,382.02 C 1207.5,382.61 1207.5,382.71 1207.5,382.86 C 1207.5,383.21 1207.3,383.36 1207,383.36 C 1206.5,383.36 1202,379.97 1199.1,373.64 C 1196.5,368.17 1195.9,362.64 1195.9,358.45 C 1195.9,354.57 1196.5,348.54 1199.2,342.91 C 1202.2,336.79 1206.5,333.55 1207,333.55 C 1207.3,333.55 1207.5,333.7 1207.5,334.04 z"
         id="path3650"
         style="fill:#d60101;stroke-width:0;stroke:#800000;fill-opacity:0.95686275" /><path
         d="M 1241.3,374.34 L 1241.5,374.7 L 1241.7,375.03 L 1242,375.34 L 1242.2,375.63 L 1242.4,375.91 L 1242.6,376.16 L 1242.8,376.4 L 1243,376.62 L 1243.3,376.82 L 1243.5,377 L 1243.7,377.18 L 1243.9,377.33 L 1244.1,377.48 L 1244.3,377.61 L 1244.5,377.72 L 1244.7,377.83 L 1244.9,377.93 L 1245.1,378.01 L 1245.3,378.09 L 1245.5,378.15 L 1245.7,378.21 L 1245.9,378.26 L 1246,378.3 L 1246.2,378.34 L 1246.4,378.37 L 1246.6,378.39 L 1247,378.43 L 1247.3,378.46 L 1247.7,378.48 C 1248.3,378.53 1248.3,379.38 1248.3,379.43 C 1248.3,379.82 1248.1,380.02 1247.7,380.02 L 1238.6,380.02 C 1238.3,380.02 1237.7,380.02 1237.7,379.07 C 1237.7,378.53 1238.1,378.48 1238.5,378.48 C 1239.8,378.38 1240.8,377.88 1240.8,376.84 C 1240.8,376.09 1240,374.99 1240,374.94 L 1224.8,350.63 L 1221.4,376.98 C 1221.4,377.83 1222.5,378.48 1224.8,378.48 C 1225.5,378.48 1226,378.48 1226,379.47 C 1226,379.92 1225.6,380.02 1225.3,380.02 L 1213.7,380.02 C 1213.4,380.02 1212.8,380.02 1212.8,379.07 C 1212.8,378.48 1213.2,378.48 1214,378.48 C 1216.8,378.48 1216.9,378.03 1217,376.79 L 1221,346.05 C 1221.1,345.05 1221.3,344.9 1222,344.9 C 1222.8,344.9 1222.9,345.15 1223.3,345.8 L 1241.3,374.34 z"
         id="path3652"
         style="fill:#d60101;stroke-width:0;stroke:#800000;fill-opacity:0.95686275" /><path
         d="M 1263.8,363.06 L 1263.8,363.08 L 1263.8,363.09 L 1263.8,363.11 L 1263.8,363.13 L 1263.8,363.15 L 1263.7,363.17 L 1263.7,363.18 L 1263.7,363.2 L 1263.7,363.22 L 1263.7,363.24 L 1263.7,363.26 L 1263.7,363.28 L 1263.7,363.3 L 1263.7,363.32 L 1263.7,363.33 L 1263.7,363.35 L 1263.6,363.37 L 1263.6,363.38 L 1263.6,363.4 L 1263.6,363.41 L 1263.6,363.43 L 1263.6,363.44 L 1263.5,363.45 L 1263.5,363.47 L 1263.5,363.48 L 1263.5,363.49 L 1263.4,363.49 L 1263.4,363.5 L 1263.4,363.5 L 1263.4,363.5 L 1263.4,363.51 L 1263.4,363.51 L 1263.3,363.51 L 1263.3,363.51 L 1263.3,363.51 L 1263.3,363.51 C 1263.1,363.51 1263.1,363.48 1262.6,363.02 L 1260.9,361.04 C 1259.6,362.89 1257.4,363.51 1255.2,363.51 C 1250.3,363.51 1246,359.54 1246,355.53 C 1246,355 1246.1,353.61 1247.1,352.32 C 1248.3,350.93 1249.6,350.61 1252,350.05 C 1252.7,349.88 1254.4,349.5 1254.9,349.36 C 1256.1,349.08 1258.2,348.31 1258.2,345.7 C 1258.2,342.87 1255.2,339.56 1251.2,339.56 C 1248.2,339.56 1244.5,340.64 1244.5,344.51 C 1244.5,344.86 1244.5,345.62 1244.7,346.25 C 1244.7,346.39 1244.7,346.43 1244.7,346.46 C 1244.7,346.91 1244.3,346.91 1244.2,346.91 C 1243.7,346.91 1243.6,346.84 1243.5,346.22 L 1241.7,339.24 C 1241.7,339.11 1241.6,338.89 1241.6,338.72 C 1241.6,338.51 1241.8,338.3 1242.1,338.3 C 1242.3,338.3 1242.3,338.34 1242.8,338.79 C 1243.2,339.21 1244.1,340.32 1244.5,340.74 C 1246.3,338.72 1249,338.3 1251.1,338.3 C 1256.4,338.3 1260.7,342.84 1260.7,346.95 C 1260.7,348.48 1260,349.88 1259.3,350.68 C 1258,351.94 1257.5,352.07 1253,353.12 C 1252.3,353.3 1251.1,353.57 1250.8,353.68 C 1249.9,353.99 1248.5,354.87 1248.5,356.85 C 1248.5,359.61 1251.6,362.4 1255.2,362.4 C 1259,362.4 1260.8,360.27 1260.8,356.96 C 1260.8,356.5 1260.7,355.7 1260.7,355.39 C 1260.7,354.9 1261.1,354.9 1261.2,354.9 C 1261.8,354.9 1261.8,355.07 1261.9,355.67 L 1263.8,363.06 z"
         id="path3654"
         style="fill:#d60101;stroke-width:0;stroke:#800000;fill-opacity:0.95686275" /><path
         d="M 1295.1,359.02 L 1295.1,359.26 L 1295.2,359.5 L 1295.3,359.62 L 1295.3,359.74 L 1295.4,359.85 L 1295.4,359.96 L 1295.5,360.07 L 1295.5,360.18 L 1295.6,360.28 L 1295.7,360.38 L 1295.7,360.48 L 1295.8,360.58 L 1295.9,360.67 L 1296,360.76 L 1296.1,360.84 L 1296.2,360.92 L 1296.3,361 L 1296.5,361.07 L 1296.6,361.14 L 1296.8,361.21 L 1296.9,361.27 L 1297.1,361.32 L 1297.2,361.37 L 1297.4,361.41 L 1297.6,361.45 L 1297.8,361.48 L 1298.1,361.51 L 1298.2,361.52 L 1298.3,361.53 L 1298.4,361.54 L 1298.5,361.55 L 1298.7,361.56 L 1298.8,361.56 C 1298.9,361.56 1299.5,361.59 1299.5,362.33 C 1299.5,362.54 1299.3,362.82 1298.9,362.82 L 1291.6,362.82 C 1291.4,362.82 1290.9,362.82 1290.9,362.05 C 1290.9,361.59 1291.4,361.56 1291.7,361.56 C 1293.3,361.53 1293.9,361 1293.9,360.13 C 1293.9,359.85 1293.9,359.68 1293.8,359.29 L 1290,344.09 L 1281.1,362.22 C 1280.9,362.82 1280.8,362.82 1279.9,362.82 L 1275.2,362.82 C 1274.5,362.82 1274.1,362.82 1274.1,362.05 C 1274.1,361.56 1274.5,361.56 1275.2,361.56 C 1275.9,361.56 1276.7,361.53 1277.4,361.39 L 1272.8,342.73 C 1272.4,341.41 1271.9,340.36 1269.1,340.25 C 1268.9,340.25 1268.4,340.22 1268.4,339.52 C 1268.4,339.14 1268.7,339 1268.9,339 L 1276.2,339 C 1276.6,339 1276.9,339.18 1276.9,339.73 C 1276.9,340.22 1276.5,340.25 1276.2,340.25 C 1273.9,340.32 1273.9,341.23 1273.9,341.72 C 1273.9,341.86 1273.9,342.04 1274.1,342.59 L 1278.6,360.45 L 1288.7,339.59 C 1289,339.04 1289.2,339 1289.5,339 C 1290.1,339 1290.1,339.11 1290.2,339.73 L 1295.1,359.02 z"
         id="path3656"
         style="fill:#d60101;stroke-width:0;stroke:#800000;fill-opacity:0.95686275" /><path
         d="M 1317.4,358.45 L 1317.4,358.82 L 1317.4,359.21 L 1317.4,359.6 L 1317.4,360.01 L 1317.3,360.85 L 1317.3,361.73 L 1317.2,362.65 L 1317.1,363.59 L 1316.9,364.57 L 1316.8,365.57 L 1316.6,366.59 L 1316.4,367.63 L 1316.1,368.68 L 1315.8,369.74 L 1315.4,370.8 L 1315,371.87 L 1314.8,372.4 L 1314.6,372.94 L 1314.4,373.47 L 1314.1,374 C 1311.1,380.12 1306.8,383.36 1306.3,383.36 C 1306,383.36 1305.8,383.16 1305.8,382.86 C 1305.8,382.71 1305.8,382.61 1306.8,381.71 C 1311.7,376.79 1314.5,368.86 1314.5,358.45 C 1314.5,349.93 1312.7,341.17 1306.5,334.89 C 1305.8,334.29 1305.8,334.2 1305.8,334.04 C 1305.8,333.75 1306,333.55 1306.3,333.55 C 1306.8,333.55 1311.3,336.93 1314.3,343.26 C 1316.8,348.74 1317.4,354.27 1317.4,358.45 z"
         id="path3658"
         style="fill:#d60101;stroke-width:0;stroke:#800000;fill-opacity:0.95686275" /></g>  </g>
  <g
     id="g3826"
     transform="matrix(0.3998396,0,0,0.3998396,-94.159967,150.58224)"
     style="stroke:#800000;fill:#800000">
    <g
       word-spacing="normal"
       letter-spacing="normal"
       font-size-adjust="none"
       font-stretch="normal"
       font-weight="normal"
       font-variant="normal"
       font-style="normal"
       fill-rule="even-odd"
       stroke-miterlimit="10.433"
       xml:space="preserve"
       transform="matrix(1.0629921,0,0,-1.0629921,-186.02362,789.27165)"
       id="g3828"
       style="font-style:normal;font-variant:normal;font-weight:normal;font-stretch:normal;letter-spacing:normal;word-spacing:normal;text-anchor:start;fill:#800000;fill-opacity:1;stroke:#800000;stroke-linecap:butt;stroke-linejoin:miter;stroke-miterlimit:10.43299960999999954;stroke-dasharray:none;stroke-dashoffset:0;stroke-opacity:1"><path
         id="path3830"
         d="M 1016.3,374.34 L 1016.5,374.7 L 1016.7,375.03 L 1017,375.34 L 1017.2,375.63 L 1017.4,375.91 L 1017.6,376.16 L 1017.8,376.4 L 1018,376.62 L 1018.3,376.82 L 1018.5,377 L 1018.7,377.18 L 1018.9,377.33 L 1019.1,377.48 L 1019.3,377.61 L 1019.5,377.72 L 1019.7,377.83 L 1019.9,377.93 L 1020.1,378.01 L 1020.3,378.09 L 1020.5,378.15 L 1020.7,378.21 L 1020.9,378.26 L 1021,378.3 L 1021.2,378.34 L 1021.4,378.37 L 1021.6,378.39 L 1022,378.43 L 1022.3,378.46 L 1022.7,378.48 C 1023.3,378.53 1023.3,379.38 1023.3,379.43 C 1023.3,379.82 1023.1,380.02 1022.7,380.02 L 1013.6,380.02 C 1013.3,380.02 1012.7,380.02 1012.7,379.07 C 1012.7,378.53 1013.1,378.48 1013.5,378.48 C 1014.8,378.38 1015.8,377.88 1015.8,376.84 C 1015.8,376.09 1015,374.99 1015,374.94 L 999.75,350.63 L 996.35,376.98 C 996.35,377.83 997.5,378.48 999.79,378.48 C 1000.5,378.48 1001,378.48 1001,379.47 C 1001,379.92 1000.6,380.02 1000.3,380.02 L 988.73,380.02 C 988.39,380.02 987.79,380.02 987.79,379.07 C 987.79,378.48 988.24,378.48 989.03,378.48 C 991.82,378.48 991.88,378.03 992.02,376.79 L 995.96,346.05 C 996.11,345.05 996.31,344.9 996.96,344.9 C 997.75,344.9 997.95,345.15 998.35,345.8 L 1016.3,374.34 z"
         style="fill:#800000;stroke-width:0;stroke:#800000" /><path
         id="path3832"
         d="M 1038.8,363.06 L 1038.8,363.08 L 1038.8,363.09 L 1038.8,363.11 L 1038.8,363.13 L 1038.8,363.15 L 1038.7,363.17 L 1038.7,363.18 L 1038.7,363.2 L 1038.7,363.22 L 1038.7,363.24 L 1038.7,363.26 L 1038.7,363.28 L 1038.7,363.3 L 1038.7,363.32 L 1038.7,363.33 L 1038.7,363.35 L 1038.6,363.37 L 1038.6,363.38 L 1038.6,363.4 L 1038.6,363.41 L 1038.6,363.43 L 1038.6,363.44 L 1038.5,363.45 L 1038.5,363.47 L 1038.5,363.48 L 1038.5,363.49 L 1038.4,363.49 L 1038.4,363.5 L 1038.4,363.5 L 1038.4,363.5 L 1038.4,363.51 L 1038.4,363.51 L 1038.3,363.51 L 1038.3,363.51 L 1038.3,363.51 L 1038.3,363.51 C 1038.1,363.51 1038.1,363.48 1037.6,363.02 L 1035.9,361.04 C 1034.6,362.89 1032.4,363.51 1030.2,363.51 C 1025.3,363.51 1021,359.54 1021,355.53 C 1021,355 1021.1,353.61 1022.1,352.32 C 1023.3,350.93 1024.6,350.61 1027,350.05 C 1027.7,349.88 1029.4,349.5 1029.9,349.36 C 1031.1,349.08 1033.2,348.31 1033.2,345.7 C 1033.2,342.87 1030.2,339.56 1026.2,339.56 C 1023.2,339.56 1019.5,340.64 1019.5,344.51 C 1019.5,344.86 1019.5,345.62 1019.7,346.25 C 1019.7,346.39 1019.7,346.43 1019.7,346.46 C 1019.7,346.91 1019.3,346.91 1019.2,346.91 C 1018.7,346.91 1018.6,346.84 1018.5,346.22 L 1016.7,339.24 C 1016.7,339.11 1016.6,338.89 1016.6,338.72 C 1016.6,338.51 1016.8,338.3 1017.1,338.3 C 1017.3,338.3 1017.3,338.34 1017.8,338.79 C 1018.2,339.21 1019.1,340.32 1019.5,340.74 C 1021.3,338.72 1024,338.3 1026.1,338.3 C 1031.4,338.3 1035.7,342.84 1035.7,346.95 C 1035.7,348.48 1035,349.88 1034.3,350.68 C 1033,351.94 1032.5,352.07 1028,353.12 C 1027.3,353.3 1026.1,353.57 1025.8,353.68 C 1024.9,353.99 1023.5,354.87 1023.5,356.85 C 1023.5,359.61 1026.6,362.4 1030.2,362.4 C 1034,362.4 1035.8,360.27 1035.8,356.96 C 1035.8,356.5 1035.7,355.7 1035.7,355.39 C 1035.7,354.9 1036.1,354.9 1036.2,354.9 C 1036.8,354.9 1036.8,355.07 1036.9,355.67 L 1038.8,363.06 z"
         style="fill:#800000;stroke-width:0;stroke:#800000" /><path
         id="path3834"
         d="M 1070.1,359.02 L 1070.1,359.26 L 1070.2,359.5 L 1070.3,359.62 L 1070.3,359.74 L 1070.4,359.85 L 1070.4,359.96 L 1070.5,360.07 L 1070.5,360.18 L 1070.6,360.28 L 1070.7,360.38 L 1070.7,360.48 L 1070.8,360.58 L 1070.9,360.67 L 1071,360.76 L 1071.1,360.84 L 1071.2,360.92 L 1071.3,361 L 1071.5,361.07 L 1071.6,361.14 L 1071.8,361.21 L 1071.9,361.27 L 1072.1,361.32 L 1072.2,361.37 L 1072.4,361.41 L 1072.6,361.45 L 1072.8,361.48 L 1073.1,361.51 L 1073.2,361.52 L 1073.3,361.53 L 1073.4,361.54 L 1073.5,361.55 L 1073.7,361.56 L 1073.8,361.56 C 1073.9,361.56 1074.5,361.59 1074.5,362.33 C 1074.5,362.54 1074.3,362.82 1073.9,362.82 L 1066.6,362.82 C 1066.4,362.82 1065.9,362.82 1065.9,362.05 C 1065.9,361.59 1066.4,361.56 1066.7,361.56 C 1068.3,361.53 1068.9,361 1068.9,360.13 C 1068.9,359.85 1068.9,359.68 1068.8,359.29 L 1065,344.09 L 1056.1,362.22 C 1055.9,362.82 1055.8,362.82 1054.9,362.82 L 1050.2,362.82 C 1049.5,362.82 1049.1,362.82 1049.1,362.05 C 1049.1,361.56 1049.5,361.56 1050.2,361.56 C 1050.9,361.56 1051.7,361.53 1052.4,361.39 L 1047.8,342.73 C 1047.4,341.41 1046.9,340.36 1044.1,340.25 C 1043.9,340.25 1043.4,340.22 1043.4,339.52 C 1043.4,339.14 1043.7,339 1043.9,339 L 1051.2,339 C 1051.6,339 1051.9,339.18 1051.9,339.73 C 1051.9,340.22 1051.5,340.25 1051.2,340.25 C 1048.9,340.32 1048.9,341.23 1048.9,341.72 C 1048.9,341.86 1048.9,342.04 1049.1,342.59 L 1053.6,360.45 L 1063.7,339.59 C 1064,339.04 1064.2,339 1064.5,339 C 1065.1,339 1065.1,339.11 1065.2,339.73 L 1070.1,359.02 z"
         style="fill:#800000;stroke-width:0;stroke:#800000" /><path
         id="path3836"
         d="M 1126.2,362.29 L 1126.4,362.29 L 1126.5,362.29 L 1126.7,362.3 L 1126.7,362.3 L 1126.8,362.3 L 1126.9,362.31 L 1126.9,362.32 L 1127,362.33 L 1127.1,362.34 L 1127.2,362.36 L 1127.2,362.37 L 1127.3,362.39 L 1127.3,362.41 L 1127.4,362.44 L 1127.5,362.47 L 1127.5,362.5 L 1127.6,362.53 L 1127.6,362.57 L 1127.7,362.61 L 1127.7,362.66 L 1127.8,362.71 L 1127.8,362.74 L 1127.8,362.76 L 1127.8,362.79 L 1127.8,362.82 L 1127.8,362.85 L 1127.8,362.89 L 1127.9,362.92 L 1127.9,362.96 L 1127.9,362.99 L 1127.9,363.03 L 1127.9,363.07 L 1127.9,363.11 L 1127.9,363.15 L 1127.9,363.19 L 1127.9,363.24 L 1127.9,363.29 C 1127.9,364.28 1127,364.28 1126.3,364.28 L 1096.4,364.28 C 1095.7,364.28 1094.8,364.28 1094.8,363.29 C 1094.8,362.29 1095.7,362.29 1096.5,362.29 L 1126.2,362.29 z"
         style="fill:#800000;stroke-width:0;stroke:#800000" /><path
         id="path3838"
         d="M 1126.3,352.62 L 1126.4,352.63 L 1126.5,352.63 L 1126.7,352.63 L 1126.8,352.64 L 1126.8,352.64 L 1126.9,352.65 L 1127,352.66 L 1127,352.67 L 1127.1,352.68 L 1127.2,352.69 L 1127.2,352.71 L 1127.3,352.73 L 1127.4,352.75 L 1127.4,352.77 L 1127.5,352.8 L 1127.5,352.83 L 1127.6,352.87 L 1127.6,352.91 L 1127.7,352.95 L 1127.7,352.99 L 1127.7,353.02 L 1127.8,353.05 L 1127.8,353.07 L 1127.8,353.1 L 1127.8,353.13 L 1127.8,353.16 L 1127.8,353.19 L 1127.8,353.22 L 1127.9,353.26 L 1127.9,353.29 L 1127.9,353.33 L 1127.9,353.37 L 1127.9,353.41 L 1127.9,353.45 L 1127.9,353.49 L 1127.9,353.53 L 1127.9,353.58 L 1127.9,353.62 C 1127.9,354.62 1127,354.62 1126.2,354.62 L 1096.5,354.62 C 1095.7,354.62 1094.8,354.62 1094.8,353.62 C 1094.8,352.62 1095.7,352.62 1096.4,352.62 L 1126.3,352.62 z"
         style="fill:#800000;stroke-width:0;stroke:#800000" /><path
         id="path3840"
         d="M 1176.3,374.34 L 1176.5,374.7 L 1176.7,375.03 L 1177,375.34 L 1177.2,375.63 L 1177.4,375.91 L 1177.6,376.16 L 1177.8,376.4 L 1178,376.62 L 1178.3,376.82 L 1178.5,377 L 1178.7,377.18 L 1178.9,377.33 L 1179.1,377.48 L 1179.3,377.61 L 1179.5,377.72 L 1179.7,377.83 L 1179.9,377.93 L 1180.1,378.01 L 1180.3,378.09 L 1180.5,378.15 L 1180.7,378.21 L 1180.9,378.26 L 1181,378.3 L 1181.2,378.34 L 1181.4,378.37 L 1181.6,378.39 L 1182,378.43 L 1182.3,378.46 L 1182.7,378.48 C 1183.3,378.53 1183.3,379.38 1183.3,379.43 C 1183.3,379.82 1183.1,380.02 1182.7,380.02 L 1173.6,380.02 C 1173.3,380.02 1172.7,380.02 1172.7,379.07 C 1172.7,378.53 1173.1,378.48 1173.5,378.48 C 1174.8,378.38 1175.8,377.88 1175.8,376.84 C 1175.8,376.09 1175,374.99 1175,374.94 L 1159.8,350.63 L 1156.4,376.98 C 1156.4,377.83 1157.5,378.48 1159.8,378.48 C 1160.5,378.48 1161,378.48 1161,379.47 C 1161,379.92 1160.6,380.02 1160.3,380.02 L 1148.7,380.02 C 1148.4,380.02 1147.8,380.02 1147.8,379.07 C 1147.8,378.48 1148.2,378.48 1149,378.48 C 1151.8,378.48 1151.9,378.03 1152,376.79 L 1156,346.05 C 1156.1,345.05 1156.3,344.9 1157,344.9 C 1157.8,344.9 1157.9,345.15 1158.3,345.8 L 1176.3,374.34 z"
         style="fill:#800000;stroke-width:0;stroke:#800000" /><path
         id="path3842"
         d="M 1194.7,350.86 L 1195.1,350.95 L 1195.5,351.06 L 1195.9,351.17 L 1196.2,351.29 L 1196.6,351.42 L 1197,351.56 L 1197.3,351.71 L 1197.7,351.86 L 1198,352.02 L 1198.4,352.19 L 1198.7,352.37 L 1199,352.55 L 1199.3,352.74 L 1199.6,352.94 L 1199.9,353.14 L 1200.2,353.35 L 1200.5,353.57 L 1200.7,353.79 L 1200.9,354.02 L 1201.2,354.25 L 1201.4,354.49 L 1201.6,354.74 L 1201.8,354.99 L 1201.9,355.24 L 1202.1,355.5 L 1202.2,355.77 L 1202.3,356.04 L 1202.4,356.31 L 1202.5,356.59 L 1202.5,356.87 L 1202.5,357.16 L 1202.6,357.45 C 1202.6,360.45 1199,362.82 1193.9,362.82 L 1183.2,362.82 C 1182.6,362.82 1182.1,362.82 1182.1,362.05 C 1182.1,361.56 1182.5,361.56 1183.2,361.56 C 1183.3,361.56 1183.9,361.56 1184.6,361.49 C 1185.3,361.42 1185.4,361.35 1185.4,361 C 1185.4,360.93 1185.4,360.76 1185.2,360.23 L 1180.6,341.72 C 1180.3,340.54 1180.2,340.25 1177.5,340.25 C 1176.9,340.25 1176.5,340.25 1176.5,339.52 C 1176.5,339.18 1176.7,339 1177,339 L 1186.1,339 C 1186.2,339 1186.8,339 1186.8,339.73 C 1186.8,340.25 1186.4,340.25 1185.6,340.25 C 1185.1,340.25 1184.9,340.25 1184.3,340.32 C 1183.6,340.43 1183.6,340.5 1183.6,340.85 C 1183.6,340.88 1183.6,341.09 1183.7,341.61 L 1185.9,350.44 L 1190.6,350.44 L 1190.7,351.41 L 1186.2,351.41 L 1188.4,360.38 C 1188.6,361.35 1188.7,361.46 1189.5,361.56 L 1191.7,361.56 C 1195,361.56 1199,361.56 1199,357.97 C 1199,356.54 1198.3,354.34 1196.7,353.09 C 1195.2,351.97 1193.1,351.41 1190.7,351.41 L 1190.6,350.44 C 1193.6,350.44 1194.9,348.94 1194.9,347.3 C 1194.9,346.84 1194.6,345.66 1194.4,344.86 C 1194,343.25 1193.9,342.73 1193.9,342.14 C 1193.9,339.38 1196.4,338.3 1199,338.3 C 1202.2,338.3 1203.6,341.72 1203.6,342.35 C 1203.6,342.45 1203.5,342.84 1203,342.84 C 1202.6,342.84 1202.5,342.59 1202.4,342.24 C 1201.9,340.71 1200.6,339.28 1199.1,339.28 C 1198.2,339.28 1197.6,339.66 1197.6,341.55 C 1197.6,342.42 1197.8,344.23 1197.9,345.17 C 1198.1,346.11 1198.1,346.46 1198.1,346.81 C 1198.1,347.23 1198.1,348.34 1197.1,349.39 C 1196.4,350.12 1195.5,350.58 1194.7,350.86 z"
         style="fill:#800000;stroke-width:0;stroke:#800000" /><path
         id="path3844"
         d="M 1231.6,347.05 L 1231.6,347.08 L 1231.6,347.1 L 1231.6,347.12 L 1231.7,347.14 L 1231.7,347.16 L 1231.7,347.17 L 1231.7,347.19 L 1231.7,347.21 L 1231.7,347.25 L 1231.7,347.28 L 1231.7,347.31 L 1231.7,347.34 L 1231.7,347.37 L 1231.8,347.39 L 1231.8,347.42 L 1231.8,347.44 L 1231.8,347.47 L 1231.8,347.49 L 1231.8,347.51 L 1231.8,347.53 L 1231.8,347.54 L 1231.8,347.56 L 1231.8,347.57 L 1231.8,347.59 L 1231.8,347.6 L 1231.8,347.61 L 1231.8,347.62 L 1231.8,347.63 L 1231.8,347.64 L 1231.8,347.65 L 1231.8,347.66 L 1231.8,347.67 L 1231.8,347.67 L 1231.8,347.68 L 1231.8,347.68 L 1231.8,347.68 C 1231.8,347.89 1231.7,348.17 1231.2,348.17 C 1231.2,348.17 1231,348.17 1230.8,348.03 C 1230.8,347.96 1230.8,347.93 1230.3,347.02 C 1228.1,342 1226.3,340.25 1220.6,340.25 L 1214.7,340.25 C 1213.6,340.25 1213.6,340.29 1213.6,340.61 C 1213.6,340.64 1213.6,340.81 1213.7,341.34 L 1216,350.68 L 1219.9,350.68 C 1222.7,350.68 1223.1,350.23 1223.1,349.08 C 1223.1,348.7 1223,348.1 1222.9,347.51 C 1222.8,347.2 1222.8,347.16 1222.8,347.09 C 1222.8,347.02 1222.8,346.6 1223.3,346.6 C 1223.8,346.6 1223.9,346.78 1224,347.37 L 1225.9,355 C 1226,355.42 1226,355.49 1226,355.53 C 1226,355.88 1225.8,356.02 1225.4,356.02 C 1225,356.02 1225,355.84 1224.8,355.11 C 1224,352.39 1223,351.94 1220,351.94 L 1216.3,351.94 L 1218.4,360.23 C 1218.7,361.32 1218.8,361.42 1220.2,361.42 L 1225.9,361.42 C 1230.5,361.42 1231.6,360.48 1231.6,357.38 C 1231.6,356.47 1231.5,355.42 1231.5,355.25 C 1231.5,354.97 1231.6,354.66 1232.1,354.66 C 1232.6,354.66 1232.6,354.97 1232.7,355.56 L 1233.3,361.63 C 1233.4,362.68 1233.2,362.68 1232.3,362.68 L 1213.1,362.68 C 1212.4,362.68 1212,362.68 1212,361.91 C 1212,361.42 1212.4,361.42 1213.2,361.42 C 1213.7,361.42 1213.9,361.42 1214.5,361.35 C 1215.2,361.28 1215.3,361.21 1215.3,360.86 C 1215.3,360.62 1215.2,360.27 1215.1,360.1 L 1210.6,341.86 C 1210.2,340.5 1210.2,340.25 1207.4,340.25 C 1206.8,340.25 1206.4,340.25 1206.4,339.49 C 1206.4,339 1206.8,339 1207.4,339 L 1227.2,339 C 1228,339 1228.1,339 1228.3,339.63 L 1231.6,347.05 z"
         style="fill:#800000;stroke-width:0;stroke:#800000" /><path
         id="path3846"
         d="M 1246.9,350.23 L 1250.7,350.23 C 1253.3,350.23 1253.8,349.81 1253.8,348.66 C 1253.8,348.14 1253.8,348.07 1253.5,347.09 C 1253.4,346.88 1253.4,346.78 1253.4,346.67 C 1253.4,346.32 1253.7,346.15 1254,346.15 C 1254.5,346.15 1254.5,346.32 1254.7,346.95 L 1256.6,354.34 C 1256.6,354.45 1256.7,354.97 1256.7,355.04 C 1256.7,355.39 1256.4,355.56 1256.1,355.56 C 1255.6,355.56 1255.6,355.36 1255.4,354.73 C 1254.7,352.01 1253.7,351.48 1250.7,351.48 L 1247.2,351.48 L 1249.4,360.23 C 1249.7,361.32 1249.8,361.42 1251.2,361.42 L 1256.6,361.42 C 1261.2,361.42 1262.1,360.3 1262.1,357.41 C 1262.1,356.26 1261.9,355.53 1261.9,355.25 C 1261.9,354.97 1262,354.66 1262.5,354.66 C 1263,354.66 1263.1,354.97 1263.1,355.56 L 1263.8,361.63 C 1263.9,362.68 1263.6,362.68 1262.8,362.68 L 1244.1,362.68 C 1243.5,362.68 1243,362.68 1243,361.91 C 1243,361.42 1243.4,361.42 1244.1,361.42 C 1244.2,361.42 1244.8,361.42 1245.5,361.35 C 1246.2,361.28 1246.3,361.21 1246.3,360.86 C 1246.3,360.62 1246.2,360.27 1246.1,360.1 L 1241.6,341.86 C 1241.2,340.5 1241.2,340.25 1238.4,340.25 C 1237.9,340.25 1237.4,340.25 1237.4,339.52 C 1237.4,339.18 1237.7,339 1238,339 L 1248,339 C 1248.2,339 1248.8,339 1248.8,339.77 C 1248.8,340.25 1248.4,340.25 1247.6,340.25 C 1247.5,340.25 1246.6,340.25 1245.7,340.32 C 1245,340.39 1244.7,340.43 1244.7,340.92 C 1244.7,341.06 1244.7,341.16 1244.8,341.55 L 1246.9,350.23 z"
         style="fill:#800000;stroke-width:0;stroke:#800000" /><path
         id="path3848"
         d="M 1312.9,357.46 L 1313,357.46 L 1313.1,357.46 L 1313.2,357.46 L 1313.3,357.46 L 1313.4,357.47 L 1313.5,357.47 L 1313.5,357.48 L 1313.6,357.49 L 1313.7,357.5 L 1313.8,357.51 L 1313.8,357.52 L 1313.9,357.54 L 1313.9,357.56 L 1314,357.58 L 1314.1,357.61 L 1314.1,357.63 L 1314.2,357.67 L 1314.2,357.7 L 1314.3,357.74 L 1314.3,357.78 L 1314.4,357.83 L 1314.4,357.85 L 1314.4,357.88 L 1314.4,357.9 L 1314.4,357.93 L 1314.5,357.96 L 1314.5,357.99 L 1314.5,358.02 L 1314.5,358.06 L 1314.5,358.09 L 1314.5,358.12 L 1314.5,358.16 L 1314.5,358.2 L 1314.6,358.24 L 1314.6,358.28 L 1314.6,358.32 L 1314.6,358.36 L 1314.6,358.41 L 1314.6,358.45 C 1314.6,359.45 1313.6,359.45 1312.9,359.45 L 1285.8,359.45 C 1285.1,359.45 1284.1,359.45 1284.1,358.45 C 1284.1,357.46 1285.1,357.46 1285.8,357.46 L 1312.9,357.46 z"
         style="fill:#800000;stroke-width:0;stroke:#800000" /><path
         id="path3850"
         d="M 1361.1,380.62 L 1361.1,380.64 L 1361.1,380.65 L 1361.1,380.67 L 1361.1,380.69 L 1361.1,380.7 L 1361.1,380.72 L 1361.1,380.74 L 1361.1,380.76 L 1361.1,380.78 L 1361.1,380.8 L 1361.1,380.82 L 1361.1,380.84 L 1361.1,380.86 L 1361.1,380.88 L 1361,380.9 L 1361,380.92 L 1361,380.94 L 1361,380.96 L 1361,380.98 L 1361,381 L 1360.9,381.02 L 1360.9,381.03 L 1360.9,381.05 L 1360.9,381.06 L 1360.8,381.07 L 1360.8,381.08 L 1360.8,381.08 L 1360.8,381.09 L 1360.8,381.09 L 1360.7,381.1 L 1360.7,381.1 L 1360.7,381.11 L 1360.7,381.11 L 1360.7,381.11 L 1360.7,381.11 L 1360.6,381.11 L 1360.6,381.12 L 1360.6,381.12 L 1360.6,381.12 C 1360.3,381.12 1360.3,381.07 1359.7,380.37 L 1357.3,377.53 C 1356,379.87 1353.4,381.12 1350.2,381.12 C 1343.8,381.12 1337.9,375.39 1337.9,369.36 C 1337.9,365.33 1340.5,363.04 1343.1,362.29 L 1348.4,360.89 C 1350.2,360.45 1353,359.7 1353,355.61 C 1353,351.13 1348.9,346.45 1344,346.45 C 1340.8,346.45 1335.3,347.54 1335.3,353.72 C 1335.3,354.92 1335.5,356.11 1335.6,356.41 C 1335.6,356.61 1335.7,356.66 1335.7,356.76 C 1335.7,357.26 1335.3,357.31 1335.1,357.31 C 1334.8,357.31 1334.7,357.26 1334.6,357.11 C 1334.4,356.91 1331.6,345.55 1331.6,345.4 C 1331.6,345.1 1331.8,344.9 1332.1,344.9 C 1332.4,344.9 1332.4,344.95 1333,345.65 L 1335.5,348.49 C 1337.6,345.6 1341,344.9 1343.9,344.9 C 1350.7,344.9 1356.6,351.53 1356.6,357.71 C 1356.6,361.14 1354.8,362.84 1354.1,363.54 C 1353,364.68 1352.2,364.88 1347.8,366.02 C 1346.7,366.32 1344.9,366.82 1344.4,366.92 C 1343.1,367.37 1341.4,368.81 1341.4,371.45 C 1341.4,375.49 1345.4,379.72 1350.1,379.72 C 1354.2,379.72 1357.3,377.58 1357.3,372 C 1357.3,370.41 1357.1,369.51 1357.1,369.21 C 1357.1,369.16 1357.1,368.71 1357.7,368.71 C 1358.2,368.71 1358.2,368.86 1358.4,369.71 L 1361.1,380.62 z"
         style="fill:#800000;stroke-width:0;stroke:#800000" /><path
         id="path3852"
         d="M 1379.5,334.04 L 1379.5,334.07 L 1379.5,334.1 L 1379.5,334.11 L 1379.5,334.13 L 1379.5,334.14 L 1379.5,334.16 L 1379.5,334.18 L 1379.5,334.19 L 1379.5,334.21 L 1379.4,334.23 L 1379.4,334.26 L 1379.4,334.28 L 1379.4,334.3 L 1379.4,334.33 L 1379.4,334.36 L 1379.3,334.39 L 1379.3,334.42 L 1379.3,334.46 L 1379.3,334.48 L 1379.2,334.5 L 1379.2,334.52 L 1379.2,334.54 L 1379.2,334.56 L 1379.2,334.59 L 1379.2,334.61 L 1379.1,334.63 L 1379.1,334.66 L 1379.1,334.68 L 1379.1,334.71 L 1379,334.74 L 1379,334.77 L 1379,334.8 L 1379,334.83 L 1378.9,334.86 L 1378.9,334.89 L 1378.9,334.92 L 1378.8,334.96 L 1378.8,334.99 L 1378.8,335.03 L 1378.7,335.06 L 1378.7,335.1 L 1378.6,335.14 C 1372.4,341.42 1370.8,350.83 1370.8,358.45 C 1370.8,367.12 1372.7,375.79 1378.8,382.02 C 1379.5,382.61 1379.5,382.71 1379.5,382.86 C 1379.5,383.21 1379.3,383.36 1379,383.36 C 1378.5,383.36 1374,379.97 1371.1,373.64 C 1368.5,368.17 1367.9,362.64 1367.9,358.45 C 1367.9,354.57 1368.5,348.54 1371.2,342.91 C 1374.2,336.79 1378.5,333.55 1379,333.55 C 1379.3,333.55 1379.5,333.7 1379.5,334.04 z"
         style="fill:#800000;stroke-width:0;stroke:#800000" /><path
         id="path3854"
         d="M 1413.3,374.34 L 1413.5,374.7 L 1413.7,375.03 L 1414,375.34 L 1414.2,375.63 L 1414.4,375.91 L 1414.6,376.16 L 1414.8,376.4 L 1415,376.62 L 1415.3,376.82 L 1415.5,377 L 1415.7,377.18 L 1415.9,377.33 L 1416.1,377.48 L 1416.3,377.61 L 1416.5,377.72 L 1416.7,377.83 L 1416.9,377.93 L 1417.1,378.01 L 1417.3,378.09 L 1417.5,378.15 L 1417.7,378.21 L 1417.9,378.26 L 1418,378.3 L 1418.2,378.34 L 1418.4,378.37 L 1418.6,378.39 L 1419,378.43 L 1419.3,378.46 L 1419.7,378.48 C 1420.3,378.53 1420.3,379.38 1420.3,379.43 C 1420.3,379.82 1420.1,380.02 1419.7,380.02 L 1410.6,380.02 C 1410.3,380.02 1409.7,380.02 1409.7,379.07 C 1409.7,378.53 1410.1,378.48 1410.5,378.48 C 1411.8,378.38 1412.8,377.88 1412.8,376.84 C 1412.8,376.09 1412,374.99 1412,374.94 L 1396.8,350.63 L 1393.4,376.98 C 1393.4,377.83 1394.5,378.48 1396.8,378.48 C 1397.5,378.48 1398,378.48 1398,379.47 C 1398,379.92 1397.6,380.02 1397.3,380.02 L 1385.7,380.02 C 1385.4,380.02 1384.8,380.02 1384.8,379.07 C 1384.8,378.48 1385.2,378.48 1386,378.48 C 1388.8,378.48 1388.9,378.03 1389,376.79 L 1393,346.05 C 1393.1,345.05 1393.3,344.9 1394,344.9 C 1394.8,344.9 1394.9,345.15 1395.3,345.8 L 1413.3,374.34 z"
         style="fill:#800000;stroke-width:0;stroke:#800000" /><path
         id="path3856"
         d="M 1435.8,363.06 L 1435.8,363.08 L 1435.8,363.09 L 1435.8,363.11 L 1435.8,363.13 L 1435.8,363.15 L 1435.7,363.17 L 1435.7,363.18 L 1435.7,363.2 L 1435.7,363.22 L 1435.7,363.24 L 1435.7,363.26 L 1435.7,363.28 L 1435.7,363.3 L 1435.7,363.32 L 1435.7,363.33 L 1435.7,363.35 L 1435.6,363.37 L 1435.6,363.38 L 1435.6,363.4 L 1435.6,363.41 L 1435.6,363.43 L 1435.6,363.44 L 1435.5,363.45 L 1435.5,363.47 L 1435.5,363.48 L 1435.5,363.49 L 1435.4,363.49 L 1435.4,363.5 L 1435.4,363.5 L 1435.4,363.5 L 1435.4,363.51 L 1435.4,363.51 L 1435.3,363.51 L 1435.3,363.51 L 1435.3,363.51 L 1435.3,363.51 C 1435.1,363.51 1435.1,363.48 1434.6,363.02 L 1432.9,361.04 C 1431.6,362.89 1429.4,363.51 1427.2,363.51 C 1422.3,363.51 1418,359.54 1418,355.53 C 1418,355 1418.1,353.61 1419.1,352.32 C 1420.3,350.93 1421.6,350.61 1424,350.05 C 1424.7,349.88 1426.4,349.5 1426.9,349.36 C 1428.1,349.08 1430.2,348.31 1430.2,345.7 C 1430.2,342.87 1427.2,339.56 1423.2,339.56 C 1420.2,339.56 1416.5,340.64 1416.5,344.51 C 1416.5,344.86 1416.5,345.62 1416.7,346.25 C 1416.7,346.39 1416.7,346.43 1416.7,346.46 C 1416.7,346.91 1416.3,346.91 1416.2,346.91 C 1415.7,346.91 1415.6,346.84 1415.5,346.22 L 1413.7,339.24 C 1413.7,339.11 1413.6,338.89 1413.6,338.72 C 1413.6,338.51 1413.8,338.3 1414.1,338.3 C 1414.3,338.3 1414.3,338.34 1414.8,338.79 C 1415.2,339.21 1416.1,340.32 1416.5,340.74 C 1418.3,338.72 1421,338.3 1423.1,338.3 C 1428.4,338.3 1432.7,342.84 1432.7,346.95 C 1432.7,348.48 1432,349.88 1431.3,350.68 C 1430,351.94 1429.5,352.07 1425,353.12 C 1424.3,353.3 1423.1,353.57 1422.8,353.68 C 1421.9,353.99 1420.5,354.87 1420.5,356.85 C 1420.5,359.61 1423.6,362.4 1427.2,362.4 C 1431,362.4 1432.8,360.27 1432.8,356.96 C 1432.8,356.5 1432.7,355.7 1432.7,355.39 C 1432.7,354.9 1433.1,354.9 1433.2,354.9 C 1433.8,354.9 1433.8,355.07 1433.9,355.67 L 1435.8,363.06 z"
         style="fill:#800000;stroke-width:0;stroke:#800000" /><path
         id="path3858"
         d="M 1467.1,359.02 L 1467.1,359.26 L 1467.2,359.5 L 1467.3,359.62 L 1467.3,359.74 L 1467.4,359.85 L 1467.4,359.96 L 1467.5,360.07 L 1467.5,360.18 L 1467.6,360.28 L 1467.7,360.38 L 1467.7,360.48 L 1467.8,360.58 L 1467.9,360.67 L 1468,360.76 L 1468.1,360.84 L 1468.2,360.92 L 1468.3,361 L 1468.5,361.07 L 1468.6,361.14 L 1468.8,361.21 L 1468.9,361.27 L 1469.1,361.32 L 1469.2,361.37 L 1469.4,361.41 L 1469.6,361.45 L 1469.8,361.48 L 1470.1,361.51 L 1470.2,361.52 L 1470.3,361.53 L 1470.4,361.54 L 1470.5,361.55 L 1470.7,361.56 L 1470.8,361.56 C 1470.9,361.56 1471.5,361.59 1471.5,362.33 C 1471.5,362.54 1471.3,362.82 1470.9,362.82 L 1463.6,362.82 C 1463.4,362.82 1462.9,362.82 1462.9,362.05 C 1462.9,361.59 1463.4,361.56 1463.7,361.56 C 1465.3,361.53 1465.9,361 1465.9,360.13 C 1465.9,359.85 1465.9,359.68 1465.8,359.29 L 1462,344.09 L 1453.1,362.22 C 1452.9,362.82 1452.8,362.82 1451.9,362.82 L 1447.2,362.82 C 1446.5,362.82 1446.1,362.82 1446.1,362.05 C 1446.1,361.56 1446.5,361.56 1447.2,361.56 C 1447.9,361.56 1448.7,361.53 1449.4,361.39 L 1444.8,342.73 C 1444.4,341.41 1443.9,340.36 1441.1,340.25 C 1440.9,340.25 1440.4,340.22 1440.4,339.52 C 1440.4,339.14 1440.7,339 1440.9,339 L 1448.2,339 C 1448.6,339 1448.9,339.18 1448.9,339.73 C 1448.9,340.22 1448.5,340.25 1448.2,340.25 C 1445.9,340.32 1445.9,341.23 1445.9,341.72 C 1445.9,341.86 1445.9,342.04 1446.1,342.59 L 1450.6,360.45 L 1460.7,339.59 C 1461,339.04 1461.2,339 1461.5,339 C 1462.1,339 1462.1,339.11 1462.2,339.73 L 1467.1,359.02 z"
         style="fill:#800000;stroke-width:0;stroke:#800000" /><path
         id="path3860"
         d="M 1489.4,358.45 L 1489.4,358.82 L 1489.4,359.21 L 1489.4,359.6 L 1489.4,360.01 L 1489.3,360.85 L 1489.3,361.73 L 1489.2,362.65 L 1489.1,363.59 L 1488.9,364.57 L 1488.8,365.57 L 1488.6,366.59 L 1488.4,367.63 L 1488.1,368.68 L 1487.8,369.74 L 1487.4,370.8 L 1487,371.87 L 1486.8,372.4 L 1486.6,372.94 L 1486.4,373.47 L 1486.1,374 C 1483.1,380.12 1478.8,383.36 1478.3,383.36 C 1478,383.36 1477.8,383.16 1477.8,382.86 C 1477.8,382.71 1477.8,382.61 1478.8,381.71 C 1483.7,376.79 1486.5,368.86 1486.5,358.45 C 1486.5,349.93 1484.7,341.17 1478.5,334.89 C 1477.8,334.29 1477.8,334.2 1477.8,334.04 C 1477.8,333.75 1478,333.55 1478.3,333.55 C 1478.8,333.55 1483.3,336.93 1486.3,343.26 C 1488.8,348.74 1489.4,354.27 1489.4,358.45 z"
         style="fill:#800000;stroke-width:0;stroke:#800000" /></g>  </g>
  <rect
     width="221.81805"
     height="177.16962"
     x="154.18599"
     y="339.35309"
     id="rect4536"
     style="fill:#ff2a2a;fill-opacity:0.3807692;stroke:none;stroke-width:2;stroke-miterlimit:4;stroke-dasharray:none;stroke-dashoffset:0;stroke-opacity:1" />
</svg>
